<svg xmlns="http://www.w3.org/2000/svg" width="62" height="50" fill="none"><g clip-path="url(#clip0)" fill-rule="evenodd" clip-rule="evenodd"><path d="M.031 30.554l.7.2.292.174.155.328.14.373.502-.12.313.12-.078.835.627-.467.21.346.682-.201.227.523-.214.36.096.312-.79.468 1.097.137.012.324-.332.397.338.26-.198.379.527.21-.471.45.31.256-.549.487.732.136.406.22-.425.466.66.133-.04.352-.152.393.276.248.112.304.127.28.006.013-.419.515-.03.37.158.296.254.25.586.096.362.19.075.319-.49.607.322.205.26.237.425.14-.18.474.304.204.55.05-.5.693.76-.096-.503.721.44.104.487.061-.173.53.756-.151-.412.723.558-.017.232.233-.065.478.583-.063-.403.792.769-.246-.08.413-.029.136.233.236.415.06.034-.009.592-.16-.099.197.01.018.56-.313.24.014.02.246.218.043.115.155.31-.067.254-.002.375-.149-.05.36.341-.114.124.161.242.008.412-.218-.09.446.527-.378.044.28.077.239.348-.147.365-.175-.018.39.462-.325.012.35.326-.124.152.149.142.167.509-.446-.05.5.508-.461.103.242.124.222.409-.316.062.336.36-.228.25-.024.016.456.248-.015.428-.39.22.034.084.344.328-.205.298-.133.226.025.242-.02.059.441.366-.33.062.467.362-.334.143.265.313-.22.118.344.307-.2.322-.277.205.094.223.051.242-.027.117.41.292-.186.273-.148.186.183.207.13.224.05.294-.245.233.006.226.032.201.182.304-.356.17.346.24-.031.272-.232.205.195.201.21.286-.328.204.206.23.03.263-.224.214.19.22.16.273-.413.226.07.239-.082.232.004.233.022.21.426.252-.352.235-.07.227.329.229.175.239-.153.238-.316.236.456.23-.287.238.12.242.182.226-.24.236.052.217-.324.263.487.211-.395.226-.055.273.426.22-.14.245.087.202-.308.273.324.17-.489.26.19.264.197.205-.211.198-.2.279.25.267.173.223-.07.192-.223.232-.014.27.163.18-.249.329.406.173-.265.273.14.263.098.447-.102.195-.154.158-.271.276.132.195-.13.357.373.12-.347.209-.087.371.38.056-.498.255.046.384.381.189-.124.12-.295.354.283.236-.012.074-.377.422.411.118-.267.297.12.165-.16.276.073.142-.195.155-.167.322.163.196-.086.285.077.344.186-.025-.475.416.308.22-.045.155-.145.353.181.165-.134.05-.303.337.146.369.19-.065-.46.409.24.332.12.012-.328h.245l.419.226.136-.148-.003-.326.403.196.028-.271.369.146.36.13.114-.163.143-.126.328.088.028.006.093-.311.093.042.586.27-.112-.302-.226-.62.403-.024.533.112.282-.181-.235-.743.524.085.034-.433.564.108.276-.192.077-.383-.087-.53.534.054.731.218-.586-.96.915.36.31-.176.31-.179-.555-.87.794.206-.552-.833.896.259.145-.303.112-.326.034-.375.626.025.23-.253-.456-.676.205-.256-.066-.414.49-.091-.248-.51.654-.013.506-.106.003-.263.003-.106-.329-.527.943.085.195-.279.12-.313-.6-.617.25-.248.069-.324.043-.33-.05-.363.357-.217-.282-.436 1.094.01.137-.305-.602-.522.847-.106-.137-.378.239-.283-.822-.531.741-.17.273-.283-.074-.352.136-.311-.474-.413.496-.255.046-.326-.223-.362-.053-.334.397-.29-.338-.36.08-.321-.108-.335.385-.305-.112-.334-.071-.33.161-.325.025-.328-.39-.324.235-.332-.533-.307.164-.33.778-.369-.85-.274.236-.342.276-.355-.26-.303.43-.379-.669-.25-.304-.287.657-.422-.09-.32-.27-.29.373-.398-.5-.244.097-.352.096-.357-.685-.189-.003-.332-.462-.311.818-.36-.136-.334-.471-.33.948-.326-.111-.332-.754-.3.682-.362-.03-.33-.723-.26-.26-.291 1.072-.464-1.137-.163.834-.465-.602-.222.347-.403-.7-.177.319-.407.369-.436-.28-.267-.73-.122.226-.409.384-.474-.815-.06.645-.592-.171-.291-.902.018.422-.537-.754-.016.61-.648-.235-.252-.087-.33-.694-.002-.39-.151.421-.617.115-.454-.168-.291-.437-.114-.313-.193.003-.41-.071-.36-1.07.373.379-.695-.605.053-.084-.35-.545.036-.112-.33.348-.757-.803.3.22-.668-.06-.412-.895.446.508-1.022-.989.597.48-1.049-.787.41.124-.674-.406-.029-.48.081-.133-.37-.103-.434-.217-.279-.235-.262-.354-.076h-.393l-.599.357.146-.923-.3-.163-.317-.128-.232-.293-.627.517-.427.149-.1-.585-.45.212-.092-.666-.496.37-.115-.667-.372.049-.434.259-.118-.762-.486.476-.428.332-.161-.716-.468.56L44.71.378l-.483.739-.26-.446-.41.472-.251-.619-.388.432-.316-.139-.35.239-.276-.841-.36.44-.325-.304-.338.216-.338-.212-.316.788-.36-.78-.294.658-.403-.898-.239 1.026-.387-.482-.258.576-.474-.922-.146 1.13-.427-.495-.36-.096-.397-.226-.142.829-.313.095-.528-.637-.105.804-.294.149-.354-.024-.483-.355-.093.684-.658-.74-.124.576-.12.54-.565-.426-.26.23-.233.277-.142.433-.741-.635-.239.267-.021.607-.577-.28-.223.28.22.905-.62-.3-.065.47-.543-.161.242.832-.546-.15-.536-.112-.397.065.103.607-.577-.117-.192.288.32.771-.618-.126.124.56-.762-.226.455.816-.276.192-.66-.1-.511.039.21.568.193.533-.726-.09.39.642-.563.035.114.45-.567.052-.043.355-.543.091-.115.32-.263.248.084.41-.425.181.332.503-.413.193-.322.238.294.465.484.509-.657.132-.388.23.853.582-1.017.07-.093.323-.068.328.36.418.154.362-.08.316-.859.197.722.438-.043.324-.149.311.23.348.03.324-.495.3.186.398-.518.027-.006.482-.546-.11-.056.436-.607-.191.347.914-.397.047-.056.456-.45-.016-.523-.129-.239.232-.133.373-.019.532-.483-.092-.177.326-.177.331-.76-.513.081.711-.133.407-.883-.747-.087.478-.143.397-.012.626-.639-.42-.545-.277-.112.464-.35.051.117.9-.759-.708.105.91-.31.132-.319.104-.204.346-.326.102-.589-.456-.335.067-.294.146-.317.105.035.887-.431-.146-.568-.462.09 1.036-.536-.4-.288.174-.456-.232-.282.191-.335.053-.087.662-.573-.513-.062.722-.28.198-.582-.548-.23.318-.018.84-.363-.012-.524-.4-.217.347-.421-.138-.37-.016.026.916-.667-.717H3.95l-.207.363-.121.556-.341.049-.19.386-.492-.275-.419-.105-.034.704-.43-.126-.038.674-.468-.198-.198.342.043.16-1.023.156z" fill="#FDEE21"/><path d="M5.739 31.924l.059-.381v.033l-.003-.35c.034-.238.334-.165.356-.035l.037.347v.029l-.021.325.12.179.345.131.127.048-.013.133-.028.314.186.175.016.013.01.015.173.245.254.19.015.011.016.014.217.247.043.05v.067l-.003.356.3.493.24.175.282.15.369.083.14.032v.42l.272.022.152.012.037.447.245.058.124.03.012.125.034.351.174.108.363.027.13.01.03.128.07.314.232.08.347.102.012.008.298.146.028.013.018.02.233.231.214.186.291.075.093.023.031.087.112.298.248.024.05.005.04.03.213.16.314-.028.086-.008.06.061.22.224.247.097.32.022.074.005.047.056.189.216.27-.014h.024l.338.025.016.001.018.005.316.087.053.015.037.041.168.198.26-.125.059-.027.059.013c.164.037.328.068.49.117.158.04.307.092.462.14l.306.03.078.008.047.06.164.207.226-.216.047-.046.068-.004.328-.02.1-.006.058.08.22.308.202-.093.028-.013.031-.003.322-.032.323-.063.077-.015.062.046.217.157.205-.204.053-.05.07-.003.33-.007.052-.001.044.025.263.152.22-.13.037-.022.04-.004.274-.022.247-.208.028-.024.035-.01.316-.096.043-.014.047.01.288.06.239-.13.07-.04.078.028.341.122.28-.03c.195-.073.393-.142.591-.207l.276-.166.292-.152.257-.196.019-.012.018-.008.264-.119.204-.24.038-.042.055-.015.326-.083.04-.01.04.007.236.044.04-.346.013-.1.093-.042.3-.132.038-.017.043.002.369.017.21-.085.125-.283.046-.11.121.002.267.006.037-.292.012-.118.118-.032.338-.09.208-.096.034-.33.015-.146.146-.013.428-.038c.146-.011.245.296.03.352l-.235.039-.009.277-.003.118-.133.075c-.103.056-.202.114-.304.168l-.01.004-.037.012-.145.048-.019.28-.019.262-.3.01-.183.005-.06.164-.043.118-.151.07-.307.145-.06.027h-.105l-.285.003-.018.325-.028.458-.503-.074-.31-.044-.074.023-.14.175-.055.071-.118.059-.226.111-.236.192-.015.013-.053.032-.28.161-.266.177-.04.025-.071.025c-.205.073-.41.151-.611.233l-.047.02-.09.012-.337.046-.115.015-.143-.046-.117-.038-.078.045-.177.103-.235-.042-.183-.032-.04.013-.202.18-.14.124-.216.023-.17.018-.193.12-.313.194-.344-.19-.115-.063-.087.09-.387.4-.478-.332-.096-.066-.052.01-.02.005-.043.005-.204.024-.242.116-.511.248-.304-.416-.549.53-.487-.606-.102-.126-.03-.003-.072-.007-.078-.023-.223-.071c-.077-.026-.149-.042-.22-.062-.065-.017-.127-.036-.195-.05l-.168.08-.496.242-.362-.42-.118-.134-.037-.01-.224-.018-.31.014-.356.017-.223-.26-.056-.065-.044-.003-.117-.009-.1-.04-.306-.123-.143-.059-.1-.103-.015-.016-.046.004-.276.024-.214-.164-.115-.086-.155-.016-.446-.046-.143-.403-.024-.08-.143-.038-.109-.1-.263-.239-.18-.186-.149-.076-.279-.089-.344-.125-.35-.129-.062-.308-.09-.01-.112-.074-.279-.187-.27-.178-.015-.275-.003-.041-.363-.1-.018-.366-.468-.053.021-.483.003-.05-.05-.013-.04-.023-.303-.183-.05-.03-.006-.006-.27-.216-.09-.073-.034-.061-.319-.585-.071-.131.006-.1.022-.277-.078-.102-.214-.18-.065-.056-.019-.03-.164-.271-.192-.206-.124-.13.022-.133.03-.197-.164-.076-.096-.044-.037-.06a5.532 5.532 0 01-.158-.29l-.05-.09.01-.058zm35.463-1.08l.273.179.08.053v.096l-.003.3.186.173.258.215.009.007.006.009.22.24.016.017.009.019.152.284.149.248.235.188.06.046.005.073.035.297.216.138.035.02.021.034.146.231.279.125.062.027.028.06.13.278.192.199.264.17.046.03.022.054.105.263.242.126.01.003.006.005.279.177.009.006.01.008.244.206.028.025.019.034.093.195.102-.027.17-.149c.137-.147.276-.296.413-.446l.158-.258.034-.052.056-.022.242-.088-.056-.278-.01-.055.022-.052.133-.29.04-.087.094-.015.316-.052.09-.014.065.06.146.138.012.01.006.01.199.253.217.24.04.046.003.061.013.264.263.102.053.021.03.05.177.274.022.035.003.041.031.291.217.156.025.02.019.026.155.236.272.154.028.015.019.022.217.243.025.027.012.033.093.278.217.182.047.04.012.061.065.329.149.238c.142.152.282.306.422.461.17.129.334.26.495.396l.162.097.124-.113.136-.283.019-.035.03-.024.261-.216.025-.02.028-.01.242-.089-.047-.32-.012-.078.052-.06.22-.254.02-.025.03-.016.31-.167.17-.192.04-.308.01-.088.08-.044.243-.133-.035-.291-.009-.089.065-.06.255-.23.167-.198-.034-.32-.01-.108.093-.058.273-.175.034-.115.062-.224.202.12.189.11.071.043.013.08.056.325.09.266.195.186.313.144.065.03.028.069.006.016.019-.026.03-.017.227-.133.09-.27.028-.08.08-.03.307-.111.186-.187.155-.26.019-.034.034-.022.236-.158.077-.262.108-.32.01-.026.015-.022c.118-.156.233-.314.347-.472l.004-.303v-.086l.068-.053.245-.185.102-.251.01-.024.018-.02.18-.224.059-.271.04-.32.003-.029.012-.026.143-.285c.112-.109.366-.087.322.154l-.102.252-.022.31-.003.018-.052.323-.007.042-.04.055-.164.228c-.034.093-.065.187-.1.28l-.024.06-.062.05-.161.13.006.233.003.082-.056.086c-.108.163-.22.324-.335.485l-.083.277c-.025.106-.056.21-.087.316l-.031.11-.1.07-.223.152-.127.218-.018.033-.031.032-.23.233-.05.052-.074.028-.183.07-.058.18-.04.119-.115.069-.22.132-.156.206-.403.53-.22-.623c-.025-.07-.05-.14-.071-.21a2.56 2.56 0 01-.18-.11l-.083-.056-.218-.27-.062-.077-.003-.027-.068-.335-.01-.034c0-.045-.002-.09-.005-.136l-.196.133c.016.094.028.189.044.283l.012.074-.062.082-.204.277-.022.022-.14.147.06.295.036.164-.185.126-.165.11-.01.232v.078l-.086.115-.204.276-.022.028-.087.057-.226.147-.028.041c.022.098.046.197.062.296l.065.363-.648.275-.112.097-.105.226-.037.086-.084.075c-.08.076-.161.154-.245.229l-.307.271-.338-.209-.282-.176-.043-.025-.022-.02-.248-.21c-.084-.068-.167-.133-.25-.204l-.057-.05-.009-.012a29.503 29.503 0 00-.415-.498l-.044-.049-.012-.023c-.056-.095-.106-.192-.158-.29l-.056-.108-.006-.049-.028-.248-.102-.103-.106-.102-.019-.078-.074-.287-.111-.15-.227-.15-.087-.058-.028-.048-.142-.258-.202-.172-.111-.093-.003-.1-.006-.333-.093-.166-.283-.125-.13-.059-.003-.124c0-.105 0-.21-.003-.316l-.167-.197-.196-.255-.068-.065c-.04.006-.077.014-.118.021a1.942 1.942 0 00-.043.128c.019.056.037.11.059.166l.08.205.069.166-.252.156-.18.113c-.03.087-.061.176-.095.26l-.047.064c-.059.09-.115.185-.18.27-.065.086-.124.176-.192.257l-.04.036c-.062.066-.133.128-.202.19l-.087.08-.127.035c-.096.027-.192.05-.288.076l-.437.115-.19-.398-.108-.233-.133-.113-.226-.147-.276-.145-.177-.093-.068-.177c-.025-.062-.046-.125-.068-.187l-.133-.089-.06-.042-.03-.034-.217-.241-.066-.069-.024-.06-.072-.158c-.046-.024-.096-.047-.145-.072l-.15-.076-.058-.101-.124-.213-.18-.126-.192-.133-.012-.191-.013-.232-.102-.09-.074-.066-.022-.043-.155-.298-.13-.287c-.053-.066-.109-.132-.159-.2l.035.031-.245-.243-.236-.254-.102-.11.01-.1.027-.266c-.056-.044-.112-.087-.167-.133l-.06-.052-.009-.024-.133-.317c-.065-.236.242-.303.316-.17l.146.26zm-9.108-14.981c.301 2.38 2.508 4.07 4.93 3.773 2.42-.297 4.138-2.467 3.837-4.848-.303-2.38-2.51-4.07-4.932-3.773-2.418.297-4.135 2.468-3.835 4.848zm22.981-8.501l.102.3.543-.034.086.35.602-.055-.375.696 1.066-.375.075.362-.007.408.313.193.438.116.167.29-.112.456-.334.486-.087.129.387.151.695.003.021.084.065.245.24.252-.612.648.754.017-.425.536.902-.016.174.29-.645.592.812.058-.381.475-.227.409.434.073a4.283 4.283 0 001.26-3.607 4.25 4.25 0 00-.98-2.232 4.45 4.45 0 00-3.95-1.542c-.35.043-.685.125-1.001.242z" fill="#ABA000"/><path d="M57.676 10.538a7.5 7.5 0 001.29-.761c.195-.147.384-.308.551-.478l.124-.13.115-.137.102-.14c.028-.044.066-.1.075-.126a.24.24 0 01.093-.104.265.265 0 01.21-.039.266.266 0 01.202.318l-.012.038c-.016.068-.028.12-.044.17-.006.022-.015.044-.021.068-.025.071-.06.139-.09.205a2.657 2.657 0 01-.23.372c-.09.112-.18.225-.279.324-.102.095-.201.205-.313.285-.111.081-.22.174-.34.248a7.72 7.72 0 01-.354.216c-.034.019-.065.037-.1.055l-.021-.084-.694-.003-.388-.152.087-.128a.339.339 0 00.037-.017zm-25.761 3.729a.268.268 0 01.375-.002 8.004 8.004 0 001.872 1.386c.084.049.17.09.26.129.087.039.177.082.264.118.183.067.363.141.549.19.369.113.75.187 1.134.215a5.887 5.887 0 002.291-.279 7.18 7.18 0 001.076-.451c.34-.177.682-.391.967-.617a.273.273 0 01.338 0 .261.261 0 01.04.371l-.028.032a4.73 4.73 0 01-.967.868c-.356.242-.74.459-1.15.622a5.833 5.833 0 01-2.647.42 5.596 5.596 0 01-2.549-.84 5.818 5.818 0 01-1.832-1.788l-.03-.05a.256.256 0 01.037-.324z" fill="#585417"/><path d="M48.685 16.578c.028.03.074.075.133.128.471.428 1.882 1.473 3.026.908.88-.433 2.567-2.918 3.444-4.61.146-.28 1.813-.829 1.906-1.053.1-.236-1.376-.142-1.351-.286.018-.102.015-.18-.013-.22-.027-.037-.096-.065-.198-.087-.167-.035.087-1.267-.232-1.267-.24 0-1.027 1.223-1.324 1.237-1.643.077-3.977.346-4.938.46a.927.927 0 00-.71.474c-.89 1.625-.17 3.582.158 4.166a.81.81 0 00.099.15z" fill="#FC8B2D"/><path d="M48.686 16.577c.028.03.074.075.133.128a28.284 28.284 0 001.848-1.145 52.84 52.84 0 001.8-1.266c.593-.43 1.179-.872 1.758-1.321a40.935 40.935 0 001.619-1.308c.018-.103.015-.18-.013-.22-.028-.038-.096-.066-.198-.088-.605.36-1.19.739-1.77 1.126-.61.407-1.215.82-1.814 1.244a53.83 53.83 0 00-1.77 1.3c-.576.449-1.15.906-1.692 1.4a.81.81 0 00.099.15zm1.599-4.292c.05.162.323.242.611.178.291-.063.487-.246.437-.408-.046-.162-.32-.242-.61-.179-.289.064-.484.247-.438.41z" fill="#D13301"/></g><defs><clipPath id="clip0"><path fill="#fff" transform="matrix(-1 0 0 1 62 .001)" d="M0 0h62v50H0z"/></clipPath></defs></svg>