<svg xmlns="http://www.w3.org/2000/svg" width="155" height="121" fill="none"><path d="M2.581 86.144c-.277-4.763 14.386-9.527 32.751-10.64 18.365-1.113 33.478 1.846 33.756 6.61.277 4.763-14.386 9.526-32.751 10.64-18.366 1.112-33.478-1.847-33.756-6.61z" fill="#F3F3F3"/><path d="M13.668.84l.557-.073.17.708.795-.548.223.601.828-.572.233.567.104.8.595-.116.347.345.733-.35.584-.077.31.417-.252 1.388 1.022-.835.29.437.195.601.58-.058-.014.946.29.432.97-.718.557-.015-.134 1.14.462.15.875-.562-.105 1.101.828-.48.342.34.452.15.123.728.438.174v.956l1.103-1.004-.047 1.048.195.62.98-.814.385.271.413.209.357.32-.019 1.072.39.282.561-.073.39.276.409.238.946-.917-.166 1.49.927-.922.352.354.623-.277.143.864.062 1.096.718-.533.575-.185.614-.32-.105 1.66.575-.205.738-.713.057 1.315.528-.087.518-.083.304.63.619-.44.537-.175.461.068.3.713.356.519.566-.33.39.412.747-1.193.29.859.542-.316.338.713.551-.412.466.568.3-.558.756.3.343-.315.2-.567.48-.102.404-.238-.11-1.203.947.805.428-.18.28-.499.167-.771.433-.204.447-.18.932 1.097-.052-1.48.59.243.703.63.171-.994.276-.742.542.16.57.3.291-.814.566.325.395-.456.504.087.456-.15.562.538.442-.257.537.597.414-.52.514.612.404-1.004.504.902.447-.684.466-.738.475.554.443.834.452.15.542-1.232.385 1.067.532-.635.376.815.609-1.038.49-.03.352.757.604-.645.404.398.328.708.285.752.742-1.004.276.762.59-.34.18.97.842-1.038.504.01.171.897.709-.504.504.043-.1 1.398.614-.219.509.025.48.097-.005 1.014.713-.335.761-.364-.29 1.402.856-.49.005.859.271.422.414.208 1.003-.582-.28 1.155.37.276 1.066-.562.076.65.195.494-.204.917 1.407-.82-.647 1.344.87-.208-.223.863 1.365-.62-.68 1.241.999-.237-.585 1.091 1.165-.33.038.568.532.199-.07.635.803.024-.723 1.053.566.19.11.485.817.063-.494.824.88.058-.286.684 1.25-.092-1.202 1.106 1.027.044-.68.81.737.2.956.135-.77.8.66.272.371.383-.665.709.841.247-.68.684.619.325-.58.626.532.359 1.108.262-.133.519.119.475.066.48-1.17.646.909.364.333.45.214.471-.1.495-.133.495-.41.495-.308.475.499.476.309.49-.87.446 1.127.539-1.598.368 1.512.607-1.588.315 1.26.63-.418.428-.947.33 1.018.66-1.15.261-.281.413.499.592-.328.407.57.636-1.108.179 1.322.893-.347.398-.466.349.043.524.238.601-.19.447-.614.266-1.051.059.152.577.58.79-.3.384-.085.495-1.25-.131.618.873-.97-.015.78 1.014-.186.452-1.217-.219.618.98-.861-.024-.656.102.475.936-.061.558-.809-.044-.732-.01.39.956-.752-.048.252.883-1.227-.544.77 1.441-1.43-.82-.11.553.31 1.048-.348.325-.99-.46.3 1.12-.285.417-1.17-.8.024.825-.266.45-1.094-.615.028.795-.37.296.36.946-.484.2-.485.198.147.781-.766-.073-.104.558-.286.383-1.036-.383-.072.597.281.985-.79-.16-.128.562-.632-.01-.59.035.404 1.208-1.075-.568-.513.102.1.878-.576.02-.038.727-.394.262-.505.097-.314.369-.285.422-.675-.175-.285.422-.433.185-.124.698-.666-.199-.333.354-.223.573-.409.228-.709-.345-.07.903-.472.121-.337.388-.547-.063-.818-.698.09 1.401-.523-.024-.319.485-.832-.873-.085 1.14-.462.112-.913-1.252-.257.699-.547-.219-.37.374-.41.238-.428.208-.494-.073-.19 1.228-.462.14-.48.02-.694-1.15-.324.83-.423.315-.547-.48-.566-.733-.37.728-.514-.48-.419.431-.461-.004-.39 1.106-.476-.04-.504-.736-.451.29-.466.156-.467.102-.46-1.247-.481 1.354-.438-1.082-.518 1.392-.461-.199-.462-.199-.366-1.353-.594 1.503-.366-1.023-.39-.66-.528.563-.504.247-.447-.145-.352-.738-.523.34-.343-.674-.647.916-.442-.16-.323-.703-.366-.442-.761 1.19-.219-1.044-.528.199-.328-.563-.542.233-.661.587-.404-.281-.533.121-.1-1.198-.447-.107-.57.213-.571.209-.324-.475-.114-.98-.423-.18-.766.65-.047-1.077-.471-.073-.68.398-.552.088-.304-.461-.57.111-.367-.315.043-1.12-.88.693-.038-.922-.271-.46-.723.344-.556.044-.048-.85-.904.617-.123-.704-.39-.262-.661.175-.29-.417-.015-.83-.494-.097-.97.587-.043-.761-.395-.253.024-.83-.566-.019-.504-.111-.799.267-.08-.66.242-1.058-.761.194-.219-.465-.242-.432-.09-.612-.738.141-.751.136-.238-.441.238-.947-.851.219-.476-.185-.38-.29.437-1.097-.138-.514-1.322.62-.024-.625v-.636l.062-.688-.228-.418-1.046.301-.034-.592-.69-.039-.551-.16.233-.795.276-.815-.58-.136-.87.073.161-.709-.827.015-.271-.388.066-.626-.813-.02.818-1.115-1.384.34.361-.796.01-.563.071-.592-1.393.282-.02-.544.296-.713.176-.63-.31-.364.157-.612-.2-.417-1.635.286.89-.955-1.228.048-.171-.446 1.137-1.02-.395-.34.152-.562-.775-.194.143-.558.114-.539-.97-.15-.153-.447.452-.645-1.136-.136.775-.727-1.118-.17.637-.67.424-.596-1.09-.214.32-.558.394-.567-.357-.403L1.79 38l.955-.65-.147-.446.062-.48-.518-.398-1.21-.326 1.307-.626-1.108-.369.086-.49.333-.5-.3-.46.3-.486.3-.48-.229-.47.623-.466-1.003-.485.651-.456.21-.456-.505-.5.818-.408-1.146-.572-.347-.519 1.55-.3-.718-.564-.28-.524.071-.475.718-.354-.927-.665 1.236-.228-.56-.611.598-.344.067-.466-.49-.621 1.17-.165-.809-.728.752-.262-.343-.611-.252-.592 1.242-.058-.752-.786 1.208-.034L4 18.9l-.024-.523.69-.209-.2-.606.052-.5-.038-.553 1.104.029.3-.364-.091-.577-.385-.752.07-.51.2-.436.452-.286.937.029.22-.412.251-.394.048-.533.575-.17.438-.257-.405-.868.885.072-.095-.655-.457-.95 1.013.198.034-.577.903.146-.204-.786.599-.102.01-.616.732.034.356-.301-.77-1.368 1.198.495.276-.383.59-.073.404-.713-.804-.602.214-.543-1.055-.306 1.013-.64-.129-.461-.556-.47.304-.486.243-.46-.048-.486L12.49 0l1.036 1.028.143-.189z" fill="#FCEE21"/><path d="M15.737 7.704l.485-.267-.038.029.395-.31c.3-.17.466.237.342.378l-.366.344-.014.015-.019.01-.385.262-.105.29.143.51.052.184-.162.102-.38.243-.043.364-.005.029-.01.024-.132.412v.491l-.005.028-.095.461-.02.097-.075.059-.41.305-.304.776.005.422.067.452.214.494.08.19-.161.12-.319.243.205.33.114.185-.162.145-.318.287.142.33.072.17-.133.12-.371.345.023.291.271.437.1.16-.123.145-.3.354.105.335.166.466.01.02.004.024.086.465.01.044-.005.043-.067.466-.033.408.162.398.052.126-.071.111-.248.383.186.297.038.063v.072l-.005.383.3.335.08.092-.019.122-.071.446.095.364.243.383.057.092-.024.107-.086.403.243.296.01.014.009.015.257.407.014.02.01.024.166.436.028.073-.019.078-.08.364.361.189.08.039.034.082c.095.219.2.432.28.66.086.218.158.432.229.645l.223.379.058.092-.029.107-.1.368.438.068.09.015.062.072.3.36.09.106-.043.136-.166.52.276.15.038.019.028.034.31.34.341.31.081.073v.111l.005.384.404.053.1.015.062.082.285.369.043.058.01.073.047.431.333.136.053.024.038.044.256.291.443.097.052.01.043.03.37.276.053.038.029.059.175.383.348.16.104.048.034.112.152.5.266.29c.247.16.495.326.737.496l.423.17.419.194.442.126.029.01.024.014.356.199.442.024.081.005.062.048.371.301.043.034.024.053.147.311.428-.257.124-.073.123.073.404.228.053.029.033.048.29.437.276.165.423-.107.167-.043.1.14.218.306.362-.214.147-.087.133.107.386.306.285.15.404-.248.176-.111.138.155.4.451c.137.156-.129.539-.371.345l-.243-.238-.323.233-.138.102-.2-.087c-.147-.068-.3-.131-.447-.2l-.01-.004-.042-.03-.181-.126-.333.224-.314.208-.266-.334-.157-.204-.238.073-.171.053-.21-.112-.422-.228-.077-.043-.09-.117-.242-.325-.386.262-.542.369-.342-.636-.21-.393-.09-.068-.314-.004h-.128l-.167-.083-.318-.16-.414-.102-.029-.005-.08-.034-.419-.174-.428-.15-.062-.02-.09-.058c-.257-.17-.518-.335-.78-.495l-.062-.039-.085-.087-.338-.345-.114-.116-.067-.204-.057-.165-.119-.048-.266-.112-.152-.306-.12-.237-.047-.034-.375-.073-.257-.049-.21-.228-.161-.179-.3-.116-.485-.19-.071-.558-.024-.184-.176-.02-.78-.092-.024-.834-.004-.165-.057-.048-.024-.02-.043-.043-.2-.209-.337-.175-.714-.368.214-.713-1.065-.16.28-1.087.058-.223-.024-.04-.052-.087-.038-.106-.11-.32c-.038-.112-.076-.204-.114-.301-.033-.088-.066-.18-.11-.267l-.232-.121-.69-.355.171-.78.053-.248-.02-.053-.17-.272-.276-.34-.319-.392.105-.48.028-.122-.033-.053-.09-.141-.039-.146-.119-.456-.056-.213.033-.204.005-.029-.043-.049-.262-.295.005-.384.005-.204-.114-.194-.324-.548.338-.51.066-.101-.076-.194.02-.213.047-.51.062-.369-.038-.232-.133-.398-.148-.5-.147-.514.3-.34-.067-.111-.01-.19-.024-.48-.023-.46.3-.258.042-.039-.195-.504.4-.34-.333-.582.566-.398.057-.039-.024-.067-.005-.063-.048-.505-.009-.083v-.014l.019-.495.005-.17.043-.092.394-.878.09-.194.12-.078.332-.218.048-.18.024-.402.01-.121.018-.049.171-.422.072-.398.047-.252.167-.092.252-.136-.052-.257-.029-.146.038-.092c.062-.145.128-.29.195-.436l.062-.136.128-.063zm31.088 39.489l.028.466.01.14-.11.083-.342.257-.038.364-.029.48v.02l-.004.014-.09.461-.005.03-.015.028-.195.422-.157.389-.014.431-.005.107-.076.073-.309.296.029.368.004.059-.019.053-.138.369.096.426.019.093-.043.082-.205.393-.066.388.028.451.005.083-.043.068-.21.35.063.387v.02l.033.47v.029l-.029.461-.004.053-.024.049-.143.277.114.092.314.063c.286.029.571.058.856.077l.428-.043.086-.01.071.049.305.198.27-.305.053-.063.076-.02.442-.101.133-.03.1.097.324.316.09.087-.014.126-.033.286v.02l-.005.02-.12.446-.09.456-.018.087-.067.058-.29.248.105.388.023.082-.028.078-.167.436-.019.054-.042.038-.305.292.005.383v.048l-.014.044-.138.383.057.447.005.043-.01.044-.095.46-.01.05-.028.043-.238.35-.024.407-.005.092-.061.068-.319.359-.143.378a55.35 55.35 0 01-.166.888 19.57 19.57 0 01-.033.912l.023.267.233.044.438-.093.052-.01.053.015.466.112.043.01.038.024.304.199.323-.33.081-.083.114.005.471.03.048.004.042.02.452.208.362.03.385-.224.11-.063.113.053.357.16.304-.29.09-.088.124.024.476.088.366.02.338-.316.114-.107.143.053.428.16.156-.063.31-.126.033.335.033.31.014.117-.08.087-.324.345-.228.334-.048.389.1.48.02.102-.058.087-.014.02h.047l.043.019.343.14.385-.13.114-.04.1.069.385.252.371.048.428-.048.057-.005.053.02.375.13.362-.14.456-.155.038-.015h.038c.276 0 .552-.01.828-.015l.342-.262.1-.077.119.034.414.116.37-.102.034-.01h.038l.409.01.356-.17.395-.232.038-.02.043-.01.442-.087c.22.034.41.345.096.505l-.371.102-.367.247-.023.015-.41.223-.052.029-.095.005-.4.01c-.133.043-.266.092-.399.13l-.09.025-.11-.03-.285-.067-.257.208-.09.073-.147.01c-.276.02-.557.034-.833.043l-.385.146c-.142.063-.285.121-.433.18l-.152.063-.166-.054-.357-.121-.357.044-.052.004-.062-.01-.456-.053-.1-.014-.095-.063-.233-.15-.257.091-.166.059-.177-.073-.337-.136h-.366l-.942.005.523-.796c.057-.087.12-.174.18-.266-.009-.102-.023-.2-.028-.301l-.004-.141.123-.48.033-.136.03-.03.322-.368.029-.039c.052-.038.1-.082.147-.126l-.314-.102c-.095.097-.194.194-.285.296l-.071.078-.143.005-.49.01-.042-.005-.286-.034-.285.33-.157.184-.3-.102-.261-.087-.271.194-.09.063-.205.005-.485.004h-.053l-.137-.048-.357-.126h-.071c-.09.111-.186.223-.281.33l-.357.388-.504-.291-.352-.204c-.066-.015-.133-.024-.2-.039l-.342.078-.133.029-.152-.03c-.157-.028-.314-.053-.466-.082l-.566-.111-.048-.568-.038-.475-.005-.068.005-.044.029-.466c.01-.155.01-.31.019-.465l.01-.107.004-.024c.076-.301.147-.607.214-.907l.02-.093.013-.034c.062-.145.129-.29.2-.431l.076-.16.053-.05.261-.246.029-.21.028-.208.072-.092.266-.335.076-.262-.02-.388-.009-.15.034-.073.17-.388.025-.383.014-.209.114-.092.371-.3.114-.248-.095-.432-.043-.199.138-.111.357-.277.08-.364.124-.446.02-.136c-.044-.039-.082-.078-.124-.116-.062.02-.124.038-.181.063a3.26 3.26 0 00-.138.213l-.166.272-.134.223-.385-.145-.28-.107c-.124.039-.252.082-.376.116h-.114c-.152.015-.305.034-.457.034-.152 0-.304.01-.456 0l-.072-.01a4.746 4.746 0 01-.385-.063l-.162-.029-.147-.116-.328-.262-.5-.398.295-.563.172-.33.019-.247-.024-.388-.067-.442-.042-.281.142-.238c.048-.082.1-.16.152-.242l-.01-.228-.004-.107.014-.068.09-.46.024-.132.048-.082.119-.218-.043-.233-.038-.233.067-.155.138-.325-.01-.316-.01-.335.21-.18.252-.217c.005-.063.01-.131.019-.194l.014-.141.029-.063.209-.437.214-.402c.029-.117.062-.238.095-.355l-.01.063.072-.49.09-.49.038-.213.124-.078.323-.203c.005-.102.005-.204.01-.306l.01-.116.018-.034.252-.427c.214-.282.547.01.457.213l-.21.393z" fill="#ABA000"/><path d="M55.584 32.096c-2.082-2.76-1.578-6.72 1.128-8.845 2.706-2.125 6.587-1.61 8.67 1.15s1.578 6.72-1.128 8.845c-2.705 2.125-6.587 1.61-8.67-1.15z" fill="#31332A"/><path d="M61.512 23.69c-.69.683-.404 2.12.633 3.215 1.037 1.092 2.44 1.427 3.129.748.69-.684.404-2.12-.633-3.217-1.036-1.096-2.44-1.426-3.129-.747z" fill="#636A78"/><path d="M85.197 42.502l-.257.379.5.592-.323.402.565.636-1.108.18 1.327.887-.347.398-.466.35.043.523.237.597-.19.446-.613.272-1.051.058.152.573.58.79-.3.388-.085.49-1.25-.13.617.873-.965-.015.775 1.014-.185.451-1.218-.218.619.98-.861-.024-.656.097.285.562a6.099 6.099 0 005.16-1.717c2.454-2.426 2.51-6.418.138-8.917a6.72 6.72 0 00-1.123-.917z" fill="#31332A"/><path d="M86.039 46.936c-.168-.832.05-1.581.488-1.674.437-.092.927.507 1.095 1.34.168.831-.05 1.58-.488 1.673-.437.092-.927-.507-1.095-1.34z" fill="#636A78"/><path d="M67.635 41.246a1.93 1.93 0 00-.152.213c-.504.757-1.684 2.974-.652 4.468 1.06 1.538 7.614 4.328 9.202 4.362.148.004.257-.02.31-.068.047-.049.07-.15.08-.296.086-1.436-1.44-7.18-1.954-9.072a1.323 1.323 0 00-.813-.903c-2.473-.907-5.075.534-5.83 1.121a2.062 2.062 0 00-.191.175z" fill="#FC8B2D"/><path d="M67.635 41.245c-.038.044-.09.117-.153.214.628.82 1.308 1.596 1.998 2.362a79.949 79.949 0 002.154 2.27 85.46 85.46 0 002.226 2.198 59.87 59.87 0 002.178 2.004c.147.005.257-.02.309-.068.047-.048.071-.15.08-.296a58.618 58.618 0 00-1.95-2.256 106.412 106.412 0 00-2.13-2.29 73.69 73.69 0 00-2.197-2.221 39.953 39.953 0 00-2.32-2.086 1.435 1.435 0 00-.195.17zm6.296 1.573c-.218.101-.27.504-.123.902.147.398.447.63.666.529.218-.102.27-.505.123-.903-.152-.393-.447-.63-.665-.528z" fill="#D13301"/><path d="M13.324 79.978h5.403l-.362-16.46v-.068a1.142 1.142 0 011.175-1.11 1.146 1.146 0 011.089 1.197l-.604 16.374 14.523-1.47a.634.634 0 01.69.577.64.64 0 01-.566.703l-10.771 1.092 12.583 2.328c.342.064.57.398.509.748a.634.634 0 01-.733.519l-13.724-2.542 9.002 5.666c.295.184.39.582.205.883a.62.62 0 01-.866.209l-11.694-7.36-5.864.005a.634.634 0 01-.627-.64.643.643 0 01.632-.65zm24.558.563c0 .301.238.544.533.544l4.965-.005 9.901 6.234c.247.16.575.077.732-.18a.547.547 0 00-.176-.747l-7.623-4.798 11.618 2.15a.795.795 0 00.095.004.53.53 0 00.523-.446.54.54 0 00-.428-.63l-10.657-1.975 9.116-.922a.55.55 0 00.48-.597.544.544 0 00-.584-.49L44.084 79.93l.176-4.71-.157.426-.466-.199-.462-.198-.323-1.209.128 5.953h-4.57a.544.544 0 00-.528.548z" fill="#FC8B2D"/><path d="M113.255 103.721c9.804 0 17.752-3.337 17.752-7.452s-7.948-7.451-17.752-7.451c-9.804 0-17.752 3.336-17.752 7.451s7.948 7.452 17.752 7.452z" fill="#E3E3E3"/><path d="M136.25 100.063c9.804 0 17.752-3.336 17.752-7.451s-7.948-7.451-17.752-7.451c-9.804 0-17.752 3.336-17.752 7.451s7.948 7.451 17.752 7.451z" fill="#E3E3E3"/><path d="M150.461 88.088a4.395 4.395 0 01-.121 1.006c-.258 1.058-.926 2.057-1.953 2.953-.38.332-.812.649-1.288.95-.649.409-1.383.787-2.197 1.127-.137.055-.273.111-.412.165-2.867 1.12-6.482 1.732-10.237 1.732-4.16 0-8.1-.743-11.091-2.09-3.206-1.446-5.022-3.46-5.113-5.671-.002-.058-.002-.114-.002-.172 0-.926.3-1.816.875-2.65.401-.58.936-1.13 1.597-1.642.413-.322.875-.626 1.387-.915.363-.206.749-.404 1.16-.591 1.153-.53 2.449-.967 3.847-1.304 2.242-.543 4.747-.832 7.342-.832 4.212 0 8.185.759 11.189 2.136 3.233 1.483 5.017 3.543 5.017 5.797z" fill="#FFCB60"/><path d="M149.537 87.945c0 .234-.025.465-.073.693-.759 3.543-7.277 6.312-15.207 6.312-8.346 0-15.129-3.066-15.28-6.875-.002-.043-.002-.087-.002-.13 0-3.867 6.843-7.005 15.282-7.005 8.437 0 15.28 3.138 15.28 7.005z" fill="#E8992E"/><path d="M149.461 88.638a1.47 1.47 0 01-.035.142c-.27 1.042-1.039 2.016-2.197 2.868-.431.317-.915.617-1.445.896-.855.449-1.831.85-2.908 1.187-2.454.77-5.423 1.22-8.621 1.22-8.347 0-15.129-3.067-15.28-6.876.164-.771.602-1.504 1.266-2.181.529-.54 1.205-1.043 2.002-1.502.51-.291 1.07-.565 1.675-.816 1.703-.708 3.756-1.243 6.026-1.542a32.44 32.44 0 014.237-.274c8.347.002 15.132 3.071 15.28 6.878z" fill="#F2BD50"/><path d="M118.055 88.28c0-.008-.003-.013-.003-.02-.002-.059-.002-.114-.002-.173l.005.193z" fill="#FFCB60"/><path d="M150.554 91.996c0 .296-.033.596-.094.89a4.655 4.655 0 01-.524 1.344 5.633 5.633 0 01-.321.497 7.17 7.17 0 01-1.137 1.23 8.208 8.208 0 01-.32.267 11.108 11.108 0 01-1.458.976 14.99 14.99 0 01-1.458.725l-.25.107a19.771 19.771 0 01-1.208.459c-.368.127-.749.246-1.138.355-.106.03-.211.06-.32.089a29.338 29.338 0 01-1.458.347 29.767 29.767 0 01-1.458.266 27.03 27.03 0 01-1.458.19 26.09 26.09 0 01-1.137.102l-.32.023c-.063.002-.127.008-.187.01-.315.018-.633.033-.948.04-.106.003-.215.008-.321.008-.232.005-.464.008-.696.008-.146 0-.293 0-.439-.003-.106-.002-.214-.002-.32-.005a46.22 46.22 0 01-1.112-.043c-.008 0-.016 0-.026-.002a33.097 33.097 0 01-1.458-.114l-.224-.023c-.033-.003-.063-.008-.096-.01a27.221 27.221 0 01-1.458-.193c-.383-.061-.764-.13-1.137-.203-.109-.02-.215-.043-.321-.066a24.818 24.818 0 01-1.458-.353 24.159 24.159 0 01-1.457-.451 17.78 17.78 0 01-1.138-.434c-.108-.043-.214-.091-.32-.137a17.105 17.105 0 01-1.458-.733 11.64 11.64 0 01-1.138-.74 7.954 7.954 0 01-.32-.249 7.809 7.809 0 01-1.138-1.11 5.886 5.886 0 01-.32-.422c-.54-.78-.837-1.613-.873-2.475l-.093-3.888c.04.905.371 1.775.966 2.59.098.134.204.268.32.4a8.09 8.09 0 001.138 1.076 11.91 11.91 0 001.458.966 15.972 15.972 0 001.231.621l.227.1.32.136c.366.15.747.294 1.138.426.106.038.211.071.32.107.371.121.749.233 1.137.337l.321.084a24.966 24.966 0 001.458.324 25.809 25.809 0 001.458.246c.375.054.754.102 1.137.142.033.003.063.008.096.01l.224.023a34.693 34.693 0 001.458.109 24.785 24.785 0 00.641.028c.164.008.33.01.497.013.106.002.214.002.32.005.116.003.23.003.346.003.265 0 .529-.003.792-.01l.32-.008c.318-.01.636-.025.948-.043l.187-.013.32-.023c.384-.028.762-.063 1.138-.106l.32-.038a27.402 27.402 0 001.458-.213 25.894 25.894 0 001.458-.287 24.952 24.952 0 001.458-.375c.388-.112.769-.231 1.137-.36l.321-.115c.27-.099.535-.203.794-.309.116-.048.23-.099.343-.147.109-.048.215-.097.321-.145a13.961 13.961 0 001.458-.786c.413-.256.792-.525 1.137-.806.111-.092.217-.183.32-.274a7.185 7.185 0 001.138-1.281 5.17 5.17 0 00.32-.533c.2-.38.343-.773.429-1.171a4.22 4.22 0 00.093-.89l.094 3.908z" fill="#E8992E"/><path d="M136.315 95.96v3.913c-.316.018-.633.033-.949.04-.106.003-.214.008-.32.008-.232.005-.464.008-.696.008-.146 0-.293 0-.439-.003-.106-.002-.214-.002-.32-.005a16.072 16.072 0 01-.497-.015v-3.903c.164.007.33.01.497.012.106.003.214.003.32.005.116.003.229.003.346.003.264 0 .529-.003.792-.01l.32-.008c.315-.013.633-.025.946-.045zm-3.839.015v3.903c-.007 0-.015 0-.025-.003a32.645 32.645 0 01-1.458-.114l-.224-.023v-3.895l.224.023a32.917 32.917 0 001.458.109h.025z" fill="#FFE3A8"/><path d="M119.337 91.27v3.794a5.886 5.886 0 01-.32-.42V90.87c.1.134.206.268.32.4zm1.458 1.314v3.84a7.954 7.954 0 01-.32-.249v-3.832c.103.081.209.163.32.241zm1.457.903v3.855a14.142 14.142 0 01-.32-.177V93.31c.103.06.209.119.32.177zm1.456.68v3.867a9.048 9.048 0 01-.32-.137V94.03c.106.048.212.091.32.137zm1.458.533v3.877a12.65 12.65 0 01-.32-.109v-3.875l.32.106zm1.457.418V99a12.08 12.08 0 01-.32-.087v-3.88c.106.03.212.058.32.084zm1.456.327v3.888c-.108-.02-.214-.043-.32-.066v-3.885c.108.023.214.043.32.063zm1.458.246v3.893c-.108-.015-.214-.03-.32-.048v-3.893c.106.018.214.033.32.048zm1.457.175v3.898c-.106-.01-.214-.02-.32-.035v-3.896c.106.013.212.023.32.033zm1.456.109v3.903a13.736 13.736 0 01-.32-.02v-3.903c.108.007.214.015.32.02zm1.458.045v3.906c-.106-.002-.214-.002-.32-.005v-3.905c.108.002.214.002.32.005zm1.457-.017v3.908c-.106.003-.214.008-.32.008v-3.906c.106-.003.214-.005.32-.01zm1.456-.079v3.914l-.32.023v-3.914c.108-.005.214-.015.32-.023zm1.458-.142v3.919c-.106.012-.214.025-.32.035v-3.918c.106-.01.214-.023.32-.036zm1.457-.212v3.923c-.106.018-.212.035-.32.05v-3.92l.32-.054zm1.456-.287v3.928a6.358 6.358 0 01-.32.069v-3.93l.32-.068zm1.458-.376v3.936c-.106.03-.211.061-.32.09v-3.934a6.56 6.56 0 00.32-.092zm1.457-.474v3.941a28.62 28.62 0 01-.32.115v-3.942a6.26 6.26 0 00.32-.114zm1.456-.603v3.951a11.84 11.84 0 01-.32.142v-3.946c.109-.049.217-.097.32-.147zm1.459-.787v3.964a9.845 9.845 0 01-.321.188v-3.959c.109-.063.217-.127.321-.193zm1.458-1.08v3.992a8.033 8.033 0 01-.32.266V92.24c.109-.091.217-.182.32-.276zm1.455-1.813v4.08a5.633 5.633 0 01-.321.497v-4.045c.121-.175.227-.353.321-.533z" fill="#C28026"/><path d="M123.066 82.29c-.411.188-.797.385-1.16.59l1.032.359c1.491-.751 3.334-1.357 5.413-1.756l-1.436-.497a21.276 21.276 0 00-3.849 1.304zm26.363 6.49c-.27 1.043-1.039 2.016-2.2 2.869l1.156.4c1.026-.895 1.695-1.897 1.952-2.952l-.908-.317zm-30.504-3.34l.832.289c.416-.57.989-1.111 1.695-1.606l-.931-.322c-.66.507-1.195 1.058-1.596 1.639zm23.951 8.288l1.617.56a14.812 14.812 0 002.608-1.29l-1.314-.454a17.62 17.62 0 01-2.911 1.184z" fill="#FFE3A8"/><path d="M149.428 88.78c-.27 1.042-1.039 2.016-2.197 2.868l-23.311-8.067c1.702-.708 3.756-1.243 6.026-1.542l19.482 6.74zm-3.645 3.763c-.855.45-1.831.85-2.908 1.187l-22.635-7.834c.53-.54 1.206-1.042 2.003-1.502l23.54 8.15z" fill="#FFC754"/><path d="M125.172 120.003c9.804 0 17.752-3.336 17.752-7.452 0-4.115-7.948-7.451-17.752-7.451-9.804 0-17.752 3.336-17.752 7.451 0 4.116 7.948 7.452 17.752 7.452z" fill="#E3E3E3"/><path d="M139.383 108.027a4.46 4.46 0 01-.121 1.007c-.257 1.057-.926 2.057-1.952 2.952-.381.332-.813.649-1.289.951-.648.408-1.382.786-2.195 1.126-.136.056-.272.112-.411.165-2.868 1.121-6.482 1.732-10.238 1.732-4.159 0-8.099-.743-11.09-2.09-3.208-1.445-5.022-3.459-5.113-5.671-.002-.058-.002-.114-.002-.172 0-.926.3-1.816.875-2.65.401-.579.936-1.129 1.597-1.641.413-.322.875-.627 1.387-.916.363-.205.749-.403 1.16-.591 1.153-.53 2.449-.966 3.846-1.303 2.243-.543 4.747-.832 7.343-.832 4.212 0 8.185.758 11.189 2.135 3.233 1.484 5.014 3.543 5.014 5.798z" fill="#FFCB60"/><path d="M138.46 107.885c0 .233-.025.464-.073.692-.759 3.543-7.277 6.313-15.207 6.313-8.346 0-15.129-3.066-15.28-6.876-.003-.043-.003-.086-.003-.129 0-3.868 6.843-7.005 15.283-7.005s15.28 3.137 15.28 7.005z" fill="#E8992E"/><path d="M138.386 108.577a1.4 1.4 0 01-.035.142c-.27 1.043-1.039 2.017-2.197 2.869-.431.317-.916.616-1.445.895-.855.449-1.831.85-2.908 1.187-2.455.771-5.423 1.22-8.622 1.22-8.346 0-15.128-3.066-15.28-6.876.164-.771.603-1.504 1.267-2.181.529-.54 1.205-1.042 2.002-1.501.51-.292 1.07-.566 1.675-.817 1.703-.707 3.756-1.243 6.026-1.542a32.545 32.545 0 014.237-.274c8.346.003 15.129 3.072 15.28 6.878z" fill="#F2BD50"/><path d="M106.977 108.22c0-.008-.003-.013-.003-.021-.002-.058-.002-.114-.002-.172l.005.193z" fill="#FFCB60"/><path d="M139.479 111.935c0 .297-.033.596-.094.89a4.68 4.68 0 01-.524 1.344 5.587 5.587 0 01-.321.498 7.245 7.245 0 01-1.137 1.23 10.968 10.968 0 01-1.778 1.242c-.356.203-.737.399-1.138.584-.106.048-.212.096-.32.142-.084.035-.164.071-.25.106-.288.119-.585.236-.888.345l-.32.114a20.214 20.214 0 01-1.458.444 28.254 28.254 0 01-2.596.563 29.626 29.626 0 01-1.457.206c-.106.012-.215.025-.321.035a27.91 27.91 0 01-1.137.102l-.321.022-.186.011c-.316.017-.633.032-.949.04-.106.003-.214.008-.32.008a32.3 32.3 0 01-.696.007c-.146 0-.293 0-.439-.002-.106-.003-.214-.003-.32-.005a16.388 16.388 0 01-.497-.016c-.207-.007-.411-.017-.616-.027-.007 0-.015 0-.025-.003-.106-.005-.214-.013-.32-.02a34.447 34.447 0 01-1.138-.094l-.224-.023c-.033-.002-.063-.008-.096-.01a27.83 27.83 0 01-1.458-.193 30.98 30.98 0 01-1.138-.203c-.108-.02-.214-.043-.32-.066a24.906 24.906 0 01-1.458-.352 24.399 24.399 0 01-1.458-.452 18.363 18.363 0 01-1.137-.433c-.109-.043-.215-.092-.32-.137a15.705 15.705 0 01-1.138-.556c-.108-.058-.214-.119-.32-.177a11.462 11.462 0 01-1.458-.989 7.862 7.862 0 01-1.138-1.111 6 6 0 01-.32-.421c-.54-.781-.837-1.613-.873-2.475l-.093-3.888c.04.905.371 1.775.966 2.589.098.134.204.269.32.401.321.373.701.733 1.138 1.075a11.774 11.774 0 001.458.966c.103.059.212.117.32.175.29.155.593.302.911.447.075.033.148.066.227.099l.32.137c.366.149.746.294 1.137.426.106.038.212.071.321.106a21.226 21.226 0 001.458.421 23.66 23.66 0 001.457.325 28.062 28.062 0 001.458.246c.376.053.755.101 1.138.142.033.002.063.007.096.01l.224.023a31.955 31.955 0 002.596.149c.106.003.214.003.32.006.116.002.23.002.346.002.264 0 .529-.002.792-.01l.32-.008c.318-.01.636-.025.948-.043.063-.005.126-.007.187-.013l.32-.022c.384-.028.762-.064 1.138-.107l.32-.038c.384-.046.762-.099 1.138-.16l.32-.053a26.343 26.343 0 001.458-.287 23.6 23.6 0 001.458-.375c.388-.111.769-.231 1.137-.36l.321-.114c.27-.099.534-.203.794-.31.116-.048.23-.098.343-.147l.321-.144a14.227 14.227 0 001.457-.786c.414-.257.792-.525 1.138-.807.111-.091.217-.183.32-.274a7.172 7.172 0 001.138-1.281c.118-.175.227-.352.32-.532.199-.381.343-.774.429-1.172.063-.292.093-.591.093-.89l.094 3.908z" fill="#E8992E"/><path d="M125.24 115.899v3.913c-.316.018-.634.033-.949.041-.106.002-.214.007-.32.007-.232.006-.464.008-.696.008-.147 0-.293 0-.439-.002-.106-.003-.215-.003-.321-.006-.166-.002-.33-.007-.496-.015v-3.905c.164.007.33.01.496.012.106.003.215.003.321.005.116.003.229.003.345.003.265 0 .53-.003.792-.01l.321-.008c.312-.01.63-.023.946-.043zm-3.839.015v3.903c-.008 0-.015 0-.025-.002-.106-.005-.215-.013-.321-.02a34.612 34.612 0 01-1.137-.094l-.225-.023v-3.898l.225.023a32.086 32.086 0 001.458.109.094.094 0 00.025.002z" fill="#FFE3A8"/><path d="M108.262 111.21v3.794a6.344 6.344 0 01-.321-.421v-3.774c.101.134.207.269.321.401zm1.456 1.314v3.837a8.26 8.26 0 01-.321-.249v-3.832c.104.084.212.165.321.244zm1.457.902v3.855c-.109-.058-.215-.119-.321-.177v-3.853c.106.059.212.117.321.175zm1.458.68v3.868c-.109-.043-.215-.092-.321-.137v-3.865l.321.134zm1.456.533v3.878c-.109-.036-.215-.071-.32-.109v-3.876l.32.107zm1.457.418v3.883a13.505 13.505 0 01-.32-.086v-3.88c.106.03.214.058.32.083zm1.458.327v3.888c-.109-.02-.214-.043-.32-.066v-3.888c.106.026.211.046.32.066zm1.458.247v3.893a14.405 14.405 0 01-.32-.048v-3.893c.106.017.211.032.32.048zm1.454.174v3.899c-.106-.011-.214-.021-.32-.036v-3.896c.106.013.214.023.32.033zm1.459.11v3.903c-.106-.005-.214-.013-.32-.02v-3.901c.106.005.212.013.32.018zm1.458.045v3.906c-.106-.003-.214-.003-.32-.005v-3.906c.106.003.212.003.32.005zm1.456-.018v3.909c-.106.002-.214.007-.32.007v-3.905c.108-.003.214-.006.32-.011zm1.457-.078v3.913l-.32.023v-3.913c.108-.005.214-.016.32-.023zm1.455-.142v3.918c-.106.013-.214.025-.32.036v-3.919c.108-.01.214-.023.32-.035zm1.459-.213v3.923a10.68 10.68 0 01-.32.051v-3.923c.108-.016.214-.033.32-.051zm1.457-.287v3.929a6.724 6.724 0 01-.32.068v-3.928l.32-.069zm1.458-.375v3.936c-.106.03-.212.061-.32.089v-3.934c.106-.028.214-.058.32-.091zm1.456-.474v3.941a57.31 57.31 0 01-.32.114v-3.941c.108-.036.214-.074.32-.114zm1.457-.604v3.951a9.146 9.146 0 01-.32.142v-3.948c.108-.046.214-.094.32-.145zm1.458-.786v3.964c-.103.063-.212.127-.32.188v-3.962c.108-.061.214-.124.32-.19zm1.456-1.081v3.992c-.103.089-.209.178-.32.267v-3.985c.111-.089.217-.18.32-.274zm1.457-1.813v4.081a5.48 5.48 0 01-.32.497v-4.043c.119-.178.227-.355.32-.535z" fill="#C28026"/><path d="M111.988 102.229c-.411.188-.797.386-1.16.591l1.032.358c1.49-.751 3.334-1.357 5.413-1.755l-1.436-.497a21.425 21.425 0 00-3.849 1.303zm26.363 6.491c-.27 1.042-1.039 2.016-2.2 2.868l1.158.401c1.027-.895 1.695-1.897 1.952-2.952l-.91-.317zm-30.504-3.341l.832.289c.416-.57.989-1.111 1.695-1.605l-.931-.322c-.661.507-1.195 1.057-1.596 1.638zm23.951 8.288l1.617.561c.138-.053.277-.109.411-.165.814-.34 1.548-.718 2.194-1.126l-1.314-.454c-.852.449-1.831.847-2.908 1.184z" fill="#FFE3A8"/><path d="M138.351 108.719c-.27 1.043-1.04 2.017-2.197 2.869l-23.311-8.07c1.702-.708 3.755-1.243 6.025-1.542l19.483 6.743zm-3.645 3.764c-.855.449-1.832.849-2.909 1.187l-22.632-7.835c.53-.54 1.206-1.042 2.003-1.501l23.538 8.149z" fill="#FFC754"/><path d="M124.834 82.885c.098.282.166.574.202.87.005.041.01.08.012.12.104 1.083-.199 2.247-.875 3.434-.25.438-.552.882-.905 1.323-.477.602-1.047 1.2-1.703 1.791-.108.099-.222.195-.335.292-2.341 2.008-5.552 3.786-9.096 5.031-3.927 1.38-7.889 1.986-11.156 1.705-3.498-.297-5.872-1.595-6.684-3.655-.022-.053-.04-.106-.06-.16-.303-.872-.313-1.813-.043-2.792.189-.68.512-1.377.968-2.077.285-.439.62-.883 1.01-1.324.274-.314.574-.629.9-.943.915-.883 1.995-1.725 3.203-2.509 1.94-1.258 4.21-2.358 6.659-3.218 3.977-1.398 7.978-1.999 11.267-1.697 3.539.327 5.897 1.682 6.636 3.81z" fill="#FFCB60"/><path d="M123.917 83.058c.075.22.128.446.156.677.447 3.597-4.8 8.375-12.286 11.002-7.88 2.77-15.29 2.123-16.68-1.423l-.045-.121c-1.269-3.653 4.162-8.882 12.129-11.68 7.968-2.797 15.457-2.107 16.726 1.545z" fill="#E8992E"/><path d="M124.073 83.738l.015.144c.088 1.075-.32 2.247-1.135 3.437-.303.441-.661.885-1.072 1.324-.658.707-1.45 1.41-2.356 2.084-2.063 1.542-4.719 2.953-7.738 4.013-7.88 2.767-15.29 2.12-16.68-1.426-.096-.78.076-1.618.482-2.478.323-.684.797-1.384 1.4-2.08.385-.446.824-.887 1.314-1.326 1.374-1.232 3.137-2.42 5.183-3.454a32.264 32.264 0 013.912-1.664c7.875-2.767 15.285-2.12 16.675 1.426z" fill="#F2BD50"/><path d="M94.305 93.814l-.007-.017c-.023-.054-.04-.107-.06-.16l.067.177z" fill="#FFCB60"/><path d="M126.206 86.545c.099.282.167.573.202.87.058.467.041.949-.053 1.443-.035.19-.083.38-.138.573a7.427 7.427 0 01-.671 1.54c-.068.12-.139.238-.215.358a11.11 11.11 0 01-.814 1.12l-.24.285a15.732 15.732 0 01-1.337 1.352 18.08 18.08 0 01-.726.618l-.265.213c-.308.241-.626.48-.956.713l-.272.19a23.599 23.599 0 01-1.264.81c-.326.197-.661.39-1.004.58-.093.053-.189.104-.285.155-.335.18-.676.355-1.022.525-.095.048-.194.094-.29.14a31.612 31.612 0 01-1.334.6c-.058.026-.116.049-.174.074a29.81 29.81 0 01-1.183.469 42.237 42.237 0 01-1.072.38l-.303.102-.474.152c-.196.061-.393.12-.59.178a.234.234 0 01-.025.007l-.308.089a29.454 29.454 0 01-1.324.342l-.093.023c-.376.089-.75.168-1.123.241l-.318.061c-.383.071-.764.132-1.14.185-.108.015-.217.031-.323.043-.39.051-.779.094-1.16.125-.111.01-.219.017-.33.025a24.21 24.21 0 01-1.186.056c-.113.002-.224.002-.338.002-.413.003-.819-.007-1.215-.033a6.773 6.773 0 01-.348-.023c-.048-.002-.096-.007-.144-.01a12.81 12.81 0 01-1.473-.198 11.082 11.082 0 01-1.7-.448 7.816 7.816 0 01-1.438-.672c-.154-.094-.3-.19-.441-.292-.767-.558-1.32-1.245-1.635-2.05l-1.36-3.644c.336.842.934 1.555 1.761 2.125.139.094.283.186.434.272.426.246.9.459 1.425.636a11.75 11.75 0 001.692.429l.361.06c.326.049.659.09 1.007.12.08.008.164.013.247.018.113.01.229.015.345.023.396.02.8.028 1.214.025.111 0 .224-.003.338-.005.388-.008.784-.028 1.183-.058.108-.008.219-.018.33-.028a23.82 23.82 0 001.483-.175c.376-.054.757-.117 1.138-.19.106-.018.212-.041.317-.061.371-.074.745-.155 1.12-.244l.094-.023.219-.053c.366-.089.734-.188 1.102-.292.104-.028.205-.058.308-.088.008-.003.015-.006.025-.008.197-.058.394-.117.59-.18.159-.048.316-.099.472-.152l.303-.102c.108-.038.217-.073.325-.111.25-.089.5-.178.744-.272l.3-.114c.298-.114.593-.233.883-.357.058-.026.116-.049.174-.074.099-.04.197-.084.295-.127a32.688 32.688 0 001.33-.619 27.608 27.608 0 001.306-.684c.343-.19.676-.383 1.001-.584.094-.056.187-.114.28-.172.336-.21.664-.426.982-.644l.272-.19c.33-.234.648-.475.956-.718l.265-.213c.224-.183.439-.368.648-.556.093-.083.184-.17.275-.253l.255-.244c.318-.31.61-.624.88-.938l.24-.287c.305-.38.575-.76.809-1.139.076-.121.147-.243.212-.365a7.018 7.018 0 00.653-1.587c.056-.206.099-.409.127-.61a4.63 4.63 0 00.02-1.247 4.405 4.405 0 00-.202-.87l1.364 3.657z" fill="#E8992E"/><path d="M114.064 95.009l1.284 3.692c-.29.122-.585.241-.883.356l-.3.114a27.333 27.333 0 01-1.072.38c-.101.033-.201.069-.302.102l-.475.152-1.281-3.685c.159-.049.315-.1.472-.153.101-.032.202-.068.302-.101.109-.038.217-.073.326-.112.25-.088.499-.177.744-.27l.3-.115c.3-.12.593-.239.885-.36zm-3.619 1.288l1.279 3.685-.025.008-.308.088c-.368.104-.736.201-1.105.289l-.219.054-1.279-3.68.22-.054a29.452 29.452 0 001.409-.38l.028-.01z" fill="#FFE3A8"/><path d="M96.498 96.21l1.244 3.582a7.04 7.04 0 01-.442-.292l-1.236-3.564c.14.097.283.188.434.274zm1.807.76l1.258 3.624a15.666 15.666 0 01-.383-.127l-1.256-3.617c.123.04.25.081.38.12zm1.669.367l1.264 3.639c-.121-.02-.243-.04-.361-.063l-1.264-3.637c.121.023.24.043.361.06zm1.599.159l1.268 3.65a8.127 8.127 0 01-.348-.023l-1.268-3.65.348.023zm1.551.018l1.271 3.66c-.113.002-.224.002-.338.002l-1.271-3.657c.114 0 .225-.002.338-.005zm1.514-.086l1.274 3.665c-.111.01-.22.018-.331.025l-1.273-3.664c.111-.008.219-.016.33-.026zm1.483-.175l1.276 3.672a9.86 9.86 0 01-.322.043l-1.274-3.67c.103-.012.212-.027.32-.045zm1.455-.251l1.276 3.675-.318.061-1.276-3.675c.106-.018.212-.038.318-.061zm1.433-.317l1.279 3.68c-.104.025-.209.051-.313.074l-1.279-3.678.313-.076zm1.413-.38l1.279 3.685c-.104.03-.205.058-.308.089l-1.279-3.683c.101-.033.205-.06.308-.091zm1.388-.442l1.282 3.688-.303.101-1.281-3.687c.101-.033.202-.069.302-.102zm1.371-.497l1.281 3.69-.3.115-1.281-3.69.3-.115zm1.349-.56l1.284 3.695c-.098.043-.196.086-.295.127l-1.284-3.695c.101-.041.197-.084.295-.127zm1.329-.616l1.287 3.7c-.096.048-.194.094-.29.14l-1.287-3.698c.096-.049.195-.097.29-.142zm1.308-.686l1.286 3.706a9.661 9.661 0 01-.285.155l-1.286-3.703.285-.158zm1.28-.753l1.289 3.708a7.558 7.558 0 01-.28.17l-1.289-3.708c.093-.055.187-.111.28-.17zm1.252-.836l1.292 3.715-.273.19-1.291-3.713c.093-.063.184-.126.272-.192zm1.22-.932l1.293 3.721-.264.213-1.292-3.72c.086-.072.174-.143.263-.214zm1.177-1.052l1.296 3.73c-.083.082-.169.163-.254.242l-1.294-3.728.252-.244zm1.119-1.225l1.301 3.743-.239.285-1.299-3.741.237-.287zm1.021-1.504l1.309 3.769c-.068.12-.138.238-.214.358l-1.307-3.762c.074-.121.144-.243.212-.365zm.78-2.196l1.339 3.852c-.035.19-.083.38-.139.573l-1.326-3.816c.055-.206.095-.409.126-.61z" fill="#C28026"/><path d="M97.072 86.497a15.55 15.55 0 00-.9.944l1.09-.005c1.16-1.205 2.703-2.387 4.532-3.452l-1.518.008a21.371 21.371 0 00-3.204 2.505zm27.017-2.615c.088 1.076-.32 2.25-1.135 3.437l1.223-.005c.676-1.187.979-2.351.876-3.434l-.964.002zm-29.895 6.962l.88-.005c.205-.677.57-1.377 1.075-2.08l-.984.005c-.459.703-.782 1.4-.97 2.08zm25.331-.116l1.708-.008c.113-.096.224-.195.335-.292a15.09 15.09 0 001.703-1.79l-1.39.007a17.8 17.8 0 01-2.356 2.083z" fill="#FFE3A8"/><path d="M124.088 83.882c.088 1.076-.321 2.247-1.135 3.437l-24.653.114c1.374-1.233 3.138-2.42 5.183-3.454l20.605-.097zm-2.208 4.761c-.658.707-1.45 1.41-2.356 2.084l-23.936.11c.323-.685.797-1.385 1.4-2.08l24.892-.114z" fill="#FFC754"/></svg>