<svg width="180" height="194" fill="none" xmlns="http://www.w3.org/2000/svg"><g clip-path="url(#clip0)"><path d="M165.78 177.948c.216-4.69-14.11-9.203-31.998-10.08-17.888-.876-32.565 2.215-32.781 6.905-.216 4.69 14.11 9.203 31.998 10.08 17.888.877 32.564-2.215 32.781-6.905z" fill="#F3F3F3"/><path d="M178.743 127.803l-.3-.409-.544.327-.152-.863-.508.231-.155-.903-.498.2-.566.435-.292-.468-.429-.011-.235-.699-.31-.435-.45.059-.711 1.03-.112-1.186-.45.078-.494.249-.321-.416-.585.599-.447.074-.151-1.082-.332-.375-.635.799-.375-.208-.187-.922-.624.751-.209-.84-.426-.015-.371-.201-.53.372-.382-.179-.595.599-.054-1.353-.624.687-.509.257-.093-1.149-.404-.085-.39-.141-.422-.034-.656.68-.415-.078-.302-.412-.412-.086-.4-.122-.011-1.19-.825 1.033v-1.178l-.437-.011-.212-.584-.624.446-.725.643-.112-.803-.238-.49-.18-.606-.97 1.104-.227-.502-.011-.933-.855.784-.27-.401-.267-.394-.581.197-.108-.684-.22-.461-.332-.257-.627.246-.545.093-.144-.58h-.497l.288-1.234-.718.345-.137-.554-.656.227-.083-.621-.642.049.166-.543-.656-.309-.014-.423.23-.484-.23-.379-.101-.412.818-.677-1.089-.123-.148-.394.137-.49.375-.595-.137-.413-.162-.401-1.262.071.956-.885-.513-.238-.829-.067.516-.732.292-.644-.436-.256-.538-.186.328-.702-.548-.168.04-.539-.368-.279-.187-.394-.682-.033-.112-.45-.703.023.069-.599-.7.045.379-.893-.877.231.152-.717.173-.766-.635.033-.8.231-.372-.201.437-1.126-.905.408.068-.739-.739.26.27-1.045-.281-.342-.689.242.029-.8-.497-.018-.642.227-.649.282.169-1.115-.645.294-.152-.595-.714.487.126-1.204-.317-.324-.663.45-.127-.78-.335-.305-.811.936-.242-.535-.328-.32-.361-.256-.627.636-.231-.677-.242-.725-.695 1.06-.224-.867-.537.532-.429.09-.39-.146-.252-1.022-.548.907-.401-.074-.306-1.045-.455.353-.429.183-.443.702-.361-1.435-.436 1.264-.408-.699-.4.684-.454-1.286-.357 1.223-.465-.803-.325 1.063-.508-.966-.383.327-.45-.227-.354.442-.508-.509-.213 1.126-.465-.249-.372.23-.544-.497-.209.836-.577-.543-.253.618-.71-.878.051 1.48-.664-.65-.087.95-.576-.36-.675-.539-.025 1.004-.577-.264-.465-.004-.036.878-.671-.398-.007.87-.584-.201-.033.77-.555-.123-.844-.569-.245.416-.368.216-.342.256.32 1.168-.789-.368-.487.063-.426.156-.245.375-.223.394-.058.573-.108.502-.606-.03-.494.1.26.852-1.032-.406.754 1.279-1.313-.613.786 1.238-1.172-.435-.01.542.378.826-1.038-.257.548.919-.087.442-.674.041-.054.468-.747.022.57.841-1.37-.316-.036.479.068.524-.349.301-.523.216-.159.401.209.569.613.729-.454.256-.851.115-.058.435-.252.365.851.739-.927.142.606.624-1.111.119-.166.405.887.662-.995.204.548.551.339.49-.876.275-.307.391.527.502.451.475-.833.339.494.464-.707.383 1.096.469-1.374.39 1.396.427-.281.417-.844.453.014.428.894.36-.883.506-.083.446 1.222.268-.53.501-.119.45 1.064.338-.515.476.043.428-.812.353.174.442.173.443-.577.394.519.453-.285.417-.065.427.88.439-.328.42-.786.427.588.42-.275.435.397.413.343.405-1.003.487 1.017.353.253.398-.61.483.343.39-.429.48.079.42.252.394-.036.435-.09.45.527.334-.087.446.152.402-.361.52.534.309-.015.442-.22.498.112.417.653.249-.523.609.216.38-.032.468.375.32.941.1-.93.814.339.327-.109.513 1.061.004-.66.766.216.372 1.341-.186-.277.605.476.224-.004.475.105.42.133.409.346.279-.645.892.198.387.285.327 1.147-.257-.321.729.065.476.638.056.804-.086-.223.699.616.037-.014.543.288.301-.451.944.318.286.771-.126.101.476.188.401.227.372 1.06-.476-.548 1.16.945-.39-.548 1.212.407.178.411.178 1.068-.605-.57 1.327.865-.394.65-.156-.026.698.155.484.368.2.678-.226.112.553.631-.193-.173.993.371.193.642-.23.501-.034-.274 1.242.786-.51.202.476.552-.141.191.505.04.8.425.089.253.427.811-.687.343.23.216.502.224.509.497-.085.682-.536.371.164.069.911.699-.64.336.261.173.695.288.416.469-.089.285.446.422.045.67-.729.112 1.011.599-.55.458-.112.227.692.317.394.559-.502.177.981.512-.356.4.089.303.542.44-.066.523-.51.368.264.231 1 .504-.446.401.104.504-.535.357.357.379.267.328.688.465-.357.509-.817.346.617.426-.145.421-.112.433-.32.372.569.378.576.422-.115.444-.751.385.699.412.197.414.067.415-.967.407-.23.426 1.253.407-.376.397-.398.389-.468.401-.111.461.873.39-.346.447.428.44.264.353-.647.336-.691.447.293.49.617.343-.546.501.554.411-.067.346-.435.516.52.191-1.226.642 1.115.274-.732.342-.357.325-.413.689 1.085.35-.323.263-.639.285-.51.418-.022.281-.483.382-.134.833 1.253.047-1.179.725.837.39-.164-.069-1.383.454.049.26-.454.599.391.259-.443.263-.412.693.546.375-.178.122-.699.787.661-.022-.966.793.628.025-.836.109-.647.804.58.155-.558.112-.613.468-.011.7.323-.184-1.033.368-.182.263-.339.566.089.952.592-.418-1.249.912.498.253-.361.108-.531.472-.09.119-.501.112-.499.433-.141-.09-.699.919.357-.115-.71.155-.424.624.019-.249-.792 1.064.398.537-.097-.772-1.204.797.119.498-.142.252-.342-.22-.691.985.193-.621-.955.729-.011-.155-.606.252-.338.689-.067-.62-.866.952.074-.296-.654.588-.156.526-.205-.732-.851.952.004-.717-.815.663-.152.343-.308-.296-.588.501-.245.281-.346.368-.316-.699-.706.043-.428.415-.297.71-.216.271-.364.147-.405-.097-.472-.595-.599.119-.401.09-.413.303-.36-.249-.484-.104-.449.789-.275-.591-.536.465-.346.876-.293-.75-.539.343-.383-.649-.502.616-.357-.31-.453.379-.391-.469-.46-.036-.421 1.331-.349-1.05-.48.073-.416-.321-.431.198-.714.869.156.209-.483.84.506-.223-1.067.364-.201.635.071.119-.502.137-.446.331-.272.833-.371-1.283-.038.029-.211z" fill="#FDEE21"/><path d="M173.185 130.724l-.133-.483.003.045-.05-.454c-.079-.301-.436-.16-.447.011l.011.454v.018l.003.019.076.416-.119.249-.404.223-.148.082.036.168.083.401-.202.253-.014.018-.011.023-.173.342-.288.286-.019.018-.014.019-.227.353-.047.071.011.085.061.458-.296.684-.266.263-.321.238-.44.168-.166.063.021.182.044.361-.332.07-.184.041.007.193.015.387-.292.115-.148.06.003.163.015.458-.198.167-.44.093-.163.033-.014.171-.036.417-.274.144-.393.179-.018.007-.015.012-.342.237-.029.023-.022.029-.249.335-.234.275-.346.141-.108.045-.026.119-.086.401-.299.071-.062.015-.047.044-.238.242-.393.011-.108.004-.065.089-.234.324-.289.163-.389.078-.09.019-.051.082-.198.308-.335.026h-.015l-.014.004-.411.085-.022.004-.022.008-.375.163-.064.026-.037.06-.176.282-.339-.119-.076-.026-.072.026c-.195.075-.39.138-.584.227-.188.078-.364.167-.545.253l-.375.089-.094.022-.05.086-.169.293-.314-.245-.065-.052-.083.004-.408.026-.122.007-.058.112-.223.431-.264-.089-.036-.011h-.039l-.404.011-.404-.03-.097-.007-.073.07-.241.238-.285-.23-.072-.056-.09.011-.408.041-.061.007-.051.041-.302.238-.293-.134-.046-.022-.051.004-.339.015-.335-.231-.04-.026-.047-.007-.4-.075-.058-.011-.054.019-.346.122-.314-.13-.093-.037-.091.048-.404.212-.346.008a17.632 17.632 0 00-.764-.175l-.368-.171-.379-.152-.349-.212-.022-.015-.025-.008-.343-.111-.288-.275-.051-.048-.072-.012-.415-.055-.05-.008-.047.015-.285.093-.104-.442-.029-.127-.123-.037-.389-.123-.051-.015-.054.012-.451.081-.274-.078-.194-.345-.076-.134-.148.022-.325.048-.09-.371-.036-.149-.148-.022-.429-.063-.27-.093-.094-.42-.04-.186-.183.007-.531.019c-.18.007-.256.42.015.461l.296.011.054.357.021.152.177.074c.133.056.267.116.4.168l.011.003.047.012.191.037.069.357.061.334.371-.037.224-.022.101.2.072.145.198.067.404.138.076.026.13-.015.353-.041.076.416.104.588.61-.175.371-.108.098.019.198.204.079.082.155.056.296.108.317.208.022.015.072.033.368.164.357.186.05.026.094.022c.263.063.527.13.79.204l.061.019h.108l.422.004.144.003.17-.081.137-.067.101.044.234.104.285-.093.22-.07.051.011.274.201.191.137.274-.003.213-.004.256.122.418.201.393-.301.13-.1.122.1.541.454.538-.506.108-.1.065.007.025.004h.306l.318.111.667.238.31-.583.757.598.505-.862.105-.179.039-.007.087-.019.09-.044.267-.127c.09-.044.173-.078.259-.115.08-.033.152-.067.235-.097l.216.078.649.235.383-.599.119-.189.046-.019.274-.059.383-.03.44-.037.234-.372.058-.093.054-.011.14-.03.116-.067.357-.208.169-.097.108-.148.015-.023.054-.003.346-.015.238-.246.126-.13.192-.044.544-.13.108-.543.022-.108.166-.071.119-.145.285-.349.194-.268.17-.122.332-.16.4-.216.411-.223.029-.409.112-.026.126-.111.317-.286.299-.272-.021-.357-.004-.052.433-.186-.036-.475.57-.145-.105-.621-.011-.063.058-.026.043-.038.346-.282.058-.048.007-.012.296-.319.101-.108.032-.086.303-.806.069-.182-.026-.13-.068-.354.079-.145.235-.267.072-.082.018-.041.158-.375.206-.298.13-.189-.047-.168-.069-.249.192-.122.111-.071.033-.082a7.69 7.69 0 00.151-.401l.047-.123-.029-.056zm-43.816 4.22l-.31.275-.09.082.015.122.05.387-.206.253-.281.316-.011.011-.007.011-.231.346-.014.022-.011.026-.141.39-.144.346-.259.279-.065.067v.096l.007.391-.245.211-.04.034-.022.045-.147.319-.325.205-.068.044-.026.082-.119.379-.202.286-.299.261-.054.048-.014.074-.087.357-.281.201-.007.007-.008.008-.313.271-.011.011-.011.011-.271.305-.032.037-.014.049-.087.267-.13-.018-.231-.164c-.194-.167-.385-.338-.576-.509l-.238-.309-.047-.063-.076-.018-.31-.075.025-.368.004-.074-.036-.063-.21-.353-.061-.104-.119-.004-.397-.015-.111-.004-.069.089-.158.201-.011.015-.008.015-.205.357-.227.342-.043.067.007.082.025.342-.307.174-.064.037-.033.067-.173.383-.022.049v.052l.008.379-.242.234-.029.03-.018.037-.155.331-.314.241-.029.023-.021.033-.227.349-.026.038-.007.044-.072.372-.238.268-.054.059-.004.082-.025.435-.148.331c-.151.219-.303.438-.45.661-.188.194-.372.391-.549.591l-.183.149-.17-.126-.213-.342-.025-.041-.04-.026-.357-.238-.032-.022-.036-.008-.31-.078.007-.42v-.104l-.072-.071-.31-.293-.029-.03-.04-.015-.407-.167-.242-.22-.097-.39-.029-.111-.105-.045-.317-.134-.004-.379v-.115l-.09-.067-.349-.257-.238-.226-.011-.42-.004-.142-.123-.059-.364-.182-.057-.145-.112-.279-.231.186-.213.174-.079.067-.004.104-.018.428-.072.357-.213.271-.36.234-.076.052-.022.093-.003.023-.029-.03-.04-.019-.299-.133-.155-.335-.047-.1-.104-.026-.394-.097-.259-.212-.231-.312-.029-.041-.043-.022-.314-.168-.137-.327-.184-.394-.014-.033-.025-.026c-.17-.182-.336-.368-.502-.554l-.046-.391-.015-.111-.094-.056-.328-.201-.166-.308-.014-.03-.022-.022-.259-.26-.116-.339-.097-.405-.011-.037-.022-.033-.216-.346c-.155-.123-.465-.056-.375.249l.166.308.072.398.007.026.116.409.014.052.058.063.238.268c.054.115.108.23.166.342l.039.074.083.056.22.145.029.301.011.108.083.1c.158.194.321.383.487.573l.147.346c.051.133.101.263.156.394l.054.137.137.074.295.16.191.261.029.037.044.037.317.264.072.059.097.026.235.06.101.223.065.149.151.07.292.138.224.241.577.621.173-.84.054-.283c.068-.055.137-.111.205-.171l.094-.085.224-.383.065-.108.003-.037.029-.442.004-.045c-.007-.059-.011-.119-.015-.178l.26.141c0 .123-.004.249-.007.372l-.004.096.087.097.295.327.029.026.195.167-.029.391-.018.215.249.134.216.115.047.298.015.1.122.134.296.323.032.034.116.059.299.153.043.048c-.014.13-.025.26-.032.39l-.022.48.494.149.346.104.152.107.162.276.061.104.112.081c.112.086.224.175.339.257l.418.301.383-.323.321-.272.046-.041.026-.029.27-.309c.094-.1.188-.197.278-.301l.061-.074.011-.019c.141-.238.285-.476.433-.706l.043-.071.014-.033c.054-.13.101-.264.148-.398l.054-.149v-.063l-.003-.327.111-.149.112-.148.011-.105.043-.382.116-.212.252-.231.101-.089.025-.067.134-.357.223-.253.123-.137-.014-.13-.044-.431.087-.227.328-.208.151-.097-.018-.16c-.014-.137-.032-.271-.047-.409l.181-.279.202-.36.072-.097.148.011.075.157c-.014.074-.028.148-.046.223l-.069.278-.054.227.332.16.241.119c.051.108.101.216.159.32l.068.074c.087.108.166.223.26.32.094.1.18.208.278.301l.05.041c.09.074.184.145.278.211l.119.09.162.026c.123.018.245.033.364.052l.559.078.17-.543.097-.32.144-.167.256-.227.318-.23.202-.145.057-.242c.022-.081.036-.167.054-.252l.148-.134.069-.063.032-.049.231-.346.065-.1.022-.082.061-.215c.058-.037.115-.078.169-.116l.17-.118.058-.142.119-.293.201-.19.217-.201-.015-.249-.018-.301c.036-.044.076-.089.112-.134l.079-.096.022-.06.144-.409.119-.39c.054-.093.112-.186.163-.283l-.036.045.263-.353.249-.364.108-.16-.029-.127-.072-.338c.061-.067.122-.13.184-.197l.068-.078.007-.033.112-.432c.047-.316-.346-.353-.414-.167l-.127.361z" fill="#ABA000"/><path d="M136.634 118.167c2.139-2.206 2.139-5.781 0-7.986a5.362 5.362 0 00-7.746 0c-2.139 2.205-2.139 5.78 0 7.986a5.362 5.362 0 007.746 0z" fill="#31332A"/><path d="M134.968 110.655c0 .877-1.071 1.587-2.394 1.587-1.323 0-2.394-.71-2.394-1.587 0-.878 1.071-1.588 2.394-1.588 1.323-.003 2.394.71 2.394 1.588z" fill="#636A78"/><path d="M108.627 106.844l-.079.405-.674.041-.054.465-.747.026.57.84-1.374-.316-.032.48.068.527-.353.298-.52.219-.158.402.209.568.613.725-.451.257-.854.111-.055.439-.252.364.855.74-.927.141.606.625-1.111.122-.166.402.887.661-.995.205.545.55.342.491-.53.16a5.694 5.694 0 01-2.113-4.454c0-3.119 2.452-5.65 5.481-5.65.436 0 .862.056 1.269.156z" fill="#31332A"/><path d="M106.089 107.692c.213.345-.119.955-.743 1.364-.623.409-1.301.461-1.514.115-.213-.346.119-.955.743-1.364.624-.409 1.301-.461 1.514-.115z" fill="#636A78"/><path d="M120.242 117.583c-.008.052-.019.134-.04.235-.162.803-.819 2.955-2.387 3.211-1.616.261-7.4-2.297-8.399-3.315-.093-.093-.148-.179-.148-.246 0-.059.047-.141.138-.238.84-.951 5.369-3.531 6.865-4.375.336-.19.725-.201 1.064-.026 2.092 1.056 2.798 3.662 2.896 4.524.011.104.014.182.011.23z" fill="#FC8B2D"/><path d="M120.242 117.583c-.008.052-.019.134-.04.235-.902.1-1.803.133-2.705.163-.916.022-1.831.019-2.744 0a86.688 86.688 0 01-2.744-.089 54.786 54.786 0 01-2.593-.179c-.093-.092-.148-.178-.148-.245 0-.059.047-.141.138-.238.872-.07 1.741-.104 2.61-.126a96.56 96.56 0 012.744-.034c.916 0 1.829.019 2.741.056.909.045 1.821.104 2.733.223.008.108.011.186.008.234zm-4.746-3.207c.069.208-.147.494-.486.643-.339.148-.671.1-.74-.108-.068-.208.148-.495.487-.643.339-.145.671-.101.739.108z" fill="#D13301"/><path d="M156.287 173.236h-4.778l.321-14.71v-.063c-.022-.572-.487-1.015-1.039-.996-.555.022-.984.502-.966 1.07l.534 14.632-12.848-1.312a.562.562 0 00-.61.513.571.571 0 00.501.628l9.524.974-11.128 2.081a.571.571 0 00-.447.67c.05.278.284.472.548.472.032 0 .065-.004.101-.008l12.137-2.271-7.962 5.067a.583.583 0 00-.18.791.546.546 0 00.768.186l10.342-6.579 5.186.003a.564.564 0 00.555-.572.568.568 0 00-.559-.576zm-21.203-1.205a.565.565 0 01-.555.573l-5.186-.004-10.342 6.579a.55.55 0 01-.768-.189.59.59 0 01.181-.792l7.965-5.067-12.141 2.272c-.033.007-.069.007-.101.007a.567.567 0 01-.548-.472.578.578 0 01.451-.669l11.128-2.082-9.524-.974a.567.567 0 01-.497-.628.559.559 0 01.609-.513l12.848 1.312-.317-8.698.541-.498.458-.112.227.692.321.394.104-.093-.184 8.378h4.778a.58.58 0 01.552.584z" fill="#FC8B2D"/><path d="M13.318 186.42c-.203-4.378 13.216-8.59 29.972-9.408 16.756-.819 30.504 2.066 30.706 6.444.203 4.377-13.216 8.589-29.972 9.408-16.756.818-30.504-2.067-30.706-6.444z" fill="#F3F3F3"/><path d="M1.175 139.617l.28-.382.51.305.142-.805.477.216.145-.843.466.187.53.406.274-.437.402-.011.22-.652.29-.406.422.056.666.961.104-1.107.423.073.462.232.301-.388.547.558.419.07.142-1.01.31-.351.595.746.351-.194.176-.86.584.701.196-.785.399-.013.348-.188.496.347.358-.166.558.558.05-1.263.585.642.476.24.088-1.073.378-.079.365-.132.395-.031.615.635.388-.073.284-.385.385-.08.375-.115.01-1.11.774.965v-1.1l.408-.011.2-.544.584.416.679.6.105-.749.223-.458.168-.566.91 1.031.212-.469.01-.871.8.733.254-.375.25-.368.544.184.101-.638.206-.431.31-.239.588.229.51.087.136-.542h.466l-.27-1.151.672.322.128-.517.615.212.078-.579.6.045-.155-.507.615-.288.014-.395-.216-.451.216-.354.094-.385-.767-.632 1.02-.114.14-.368-.13-.458-.35-.555.128-.385.152-.375 1.182.066-.895-.826.48-.222.776-.062-.483-.684-.273-.6.409-.24.503-.173-.308-.656.514-.156-.037-.503.344-.26.176-.368.638-.031.105-.42.659.021-.065-.559.656.042-.355-.833.82.215-.141-.669-.162-.715.594.031.75.215.348-.187-.409-1.051.848.381-.064-.69.693.243-.254-.975.264-.319.645.225-.027-.746.466-.017.601.212.608.263-.159-1.041.605.274.142-.555.669.455-.119-1.124.298-.302.621.42.118-.729.314-.284.76.874.227-.5.307-.298.338-.239.588.593.216-.632.226-.676.652.989.21-.809.503.496.402.084.365-.136.236-.954.513.847.375-.07.287-.975.426.33.402.17.416.656.337-1.339.409 1.179.382-.652.375.638.425-1.2.335 1.141.435-.749.304.992.477-.902.358.305.422-.211.33.413.477-.476.2 1.052.435-.233.348.215.51-.465.196.781.54-.507.237.576.665-.818-.047 1.38.621-.607.082.889.54-.337.632-.503.023.937.54-.247.436-.003.034.819.628-.372.007.812.547-.187.03.718.521-.114.79-.531.23.388.345.202.32.239-.3 1.089.74-.343.456.059.398.146.23.35.21.368.053.534.102.469.567-.028.463.093-.243.795.966-.378-.706 1.193 1.23-.572-.737 1.155 1.098-.406.01.507-.355.77.973-.239-.513.857.08.412.632.039.051.437.7.021-.534.784 1.283-.295.034.447-.064.49.327.281.49.201.149.374-.196.531-.574.68.425.24.797.107.054.406.237.34-.797.691.868.132-.568.582 1.04.111.156.379-.83.617.931.191-.513.513-.318.458.821.257.287.364-.493.469-.422.444.78.316-.463.433.663.358-1.027.437 1.287.364-1.308.399.264.389.79.423-.013.399-.838.337.828.471.077.417-1.145.25.497.468.111.42-.996.315.483.445-.04.399.76.329-.163.413-.162.413.54.368-.486.423.267.389.06.399-.824.409.308.392.736.399-.55.392.256.406-.371.385-.321.378.939.455-.953.329-.236.372.57.451-.32.364.402.447-.074.393-.237.367.034.406.084.42-.493.312.081.417-.142.374.338.486-.5.288.014.413.206.465-.105.388-.611.233.49.569-.203.354.03.437-.351.298-.882.094.872.76-.318.305.102.479-.993.003.618.715-.203.347-1.257-.173.26.565-.445.208.003.444-.098.392-.125.382-.324.26.605.833-.186.361-.267.305-1.074-.239.3.68-.06.444-.598.052-.754-.08.21.652-.578.035.014.507-.27.281.422.881-.297.267-.723-.118-.095.444-.175.375-.213.347-.993-.444.513 1.082-.885-.364.514 1.131-.382.166-.385.167-1-.566.534 1.239-.811-.368-.608-.145.024.652-.146.451-.344.187-.635-.211-.105.517-.591-.181.162.926-.348.181-.601-.215-.47-.031.257 1.158-.736-.475-.19.444-.516-.132-.18.472-.036.746-.399.083-.236.399-.76-.641-.321.215-.203.468-.21.475-.465-.079-.639-.5-.348.153-.064.85-.655-.597-.314.243-.162.649-.27.388-.44-.083-.267.416-.395.042-.628-.68-.105.943-.56-.513-.43-.104-.212.645-.297.368-.524-.468-.165.916-.48-.333-.375.083-.284.506-.412-.062-.49-.475-.344.246-.216.933-.473-.416-.375.097-.473-.5-.334.333-.355.25-.308.642-.435-.333-.477-.763-.324.576-.398-.136-.396-.104-.405-.298-.348.531-.355.538-.395-.108-.415-.701-.362.652-.385.184-.388.063-.389-.902-.381-.215-.399 1.169-.381-.351-.372-.371-.365-.437-.375-.104-.432.815-.365-.322-.419.399-.412.246-.33-.604-.315-.645-.419.274-.46.576-.32-.51-.47.517-.385-.063-.324-.406-.483.486-.179-1.145-.601 1.041-.257-.683-.32-.333-.305-.386-.645 1.013-.328-.301-.246-.597-.267-.475-.392-.021-.263-.451-.358-.125-.78 1.169-.044-1.1-.68.781-.364-.153.064-1.29-.426.045-.243-.424-.56.365-.244-.413-.246-.385-.649.51-.351-.167-.115-.652-.736.617.02-.902-.743.587-.024-.781-.101-.604-.753.542-.146-.521-.104-.572-.44-.011-.655.302.172-.964-.344-.17-.247-.316-.53.083-.892.552.392-1.166-.854.465-.237-.337-.101-.496-.443-.083-.111-.468-.105-.465-.405-.132.084-.652-.861.333.108-.663-.145-.395-.585.017.233-.739-.996.371-.503-.09.723-1.124-.747.111-.466-.132-.236-.319.206-.646-.923.181.581-.892-.682-.01.145-.566-.236-.315-.645-.063.58-.808-.891.069.277-.611-.55-.145-.494-.191.686-.795-.892.004.672-.76-.621-.142-.321-.288.277-.548-.47-.229-.263-.323-.345-.295.656-.659-.04-.399-.39-.278-.665-.201-.253-.34-.138-.378.09-.441.558-.558-.111-.375-.085-.385-.284-.337.234-.451.097-.419-.74-.257.555-.5-.436-.322-.82-.275.702-.503-.321-.357.608-.468-.578-.333.29-.424-.354-.364.44-.43.033-.392-1.246-.326.982-.448-.067-.389.3-.402-.185-.666-.814.146-.196-.452-.787.472.21-.995-.342-.188-.594.066-.112-.468-.128-.417-.311-.253-.78-.347 1.202-.034-.027-.198z" fill="#FDEE21"/><path d="M6.38 142.344l.126-.451-.004.042.047-.424c.075-.281.41-.149.42.011l-.01.423v.017l-.004.018-.071.388.111.233.379.208.138.076-.034.156-.077.375.189.236.013.017.01.021.163.319.27.268.017.017.013.017.213.33.044.066-.01.08-.058.426.277.639.25.246.3.222.413.156.155.059-.02.17-.04.337.31.066.172.038-.006.18-.014.361.274.108.138.055-.003.153-.014.427.186.156.412.086.152.032.014.159.034.389.256.135.369.167.016.007.014.01.32.222.028.021.02.028.233.312.22.257.324.131.101.042.024.111.081.375.28.066.058.014.044.041.223.226.368.01.101.004.06.083.22.302.27.152.366.073.084.018.047.076.186.288.314.024h.014l.013.004.385.079.02.004.02.007.352.153.06.024.035.055.165.264.318-.111.07-.024.068.024c.182.069.365.128.547.212.176.073.341.156.51.236l.352.083.087.021.048.079.159.275.293-.229.061-.049.078.003.382.025.114.007.054.104.21.402.247-.083.033-.01h.037l.379.01.378-.028.091-.007.068.066.226.222.267-.215.067-.052.085.011.382.038.057.007.047.038.284.222.274-.125.043-.021.048.004.317.013.315-.215.037-.024.044-.007.375-.069.053-.011.051.018.325.114.293-.121.088-.035.085.045.378.198.324.007c.237-.059.476-.115.716-.163l.345-.16.354-.142.328-.198.02-.014.024-.007.32-.104.271-.256.047-.046.068-.01.388-.052.048-.007.044.014.266.087.098-.413.027-.118.115-.035.365-.114.047-.014.051.01.422.076.257-.072.182-.323.071-.125.139.021.304.045.084-.347.034-.139.139-.021.401-.059.254-.086.088-.392.037-.174.172.007.496.017c.17.007.24.393-.013.431l-.277.01-.05.333-.02.142-.166.07c-.125.052-.25.107-.375.156l-.01.003-.044.011-.18.034-.064.334-.057.312-.348-.035-.21-.021-.094.188-.068.135-.185.062-.379.129-.07.024-.122-.014-.331-.038-.071.389-.098.548-.57-.163-.349-.101-.09.017-.187.191-.074.077-.145.052-.277.1-.297.195-.02.013-.068.032-.345.152-.334.174-.047.024-.088.021a18.31 18.31 0 00-.74.191l-.058.017h-.1l-.396.004-.135.003-.159-.076-.128-.063-.095.042-.22.097-.266-.087-.206-.066-.048.011-.256.187-.18.128-.256-.003-.2-.003-.24.114-.39.187-.37-.281-.12-.093-.116.093-.506.424-.503-.472-.102-.094-.06.007-.024.004h-.287l-.298.104-.624.222-.291-.545-.71.559-.472-.805-.098-.167-.037-.007-.081-.017-.085-.042-.25-.118c-.084-.041-.162-.073-.243-.107-.074-.032-.142-.063-.22-.091l-.202.073-.608.219-.358-.559-.112-.177-.044-.017-.256-.056-.358-.027-.412-.035-.22-.347-.054-.087-.05-.01-.133-.028-.108-.062-.334-.195-.159-.09-.101-.139-.014-.02-.05-.004-.324-.014-.223-.229-.119-.121-.179-.042-.51-.121-.101-.507-.02-.1-.156-.066-.111-.136-.267-.326-.182-.25-.16-.114-.31-.149-.375-.201-.385-.209-.027-.381-.105-.025-.118-.104-.297-.267-.28-.253.02-.333.003-.049-.405-.173.034-.444-.534-.136.098-.579.01-.059-.054-.024-.04-.035-.325-.264-.054-.045-.007-.01-.277-.299-.094-.1-.03-.08-.284-.753-.064-.17.023-.121.064-.33-.074-.135-.22-.25-.067-.076-.017-.038-.149-.351-.192-.277-.122-.177.044-.157.064-.232-.179-.114-.104-.066-.03-.077a7.224 7.224 0 01-.143-.374l-.043-.115.027-.052zm41.044 3.938l.29.256.085.077-.014.114-.047.361.193.236.263.295.01.01.007.011.216.322.014.021.01.025.131.364.136.323.243.26.06.062v.09l-.006.365.23.197.037.032.02.041.138.299.304.191.065.041.023.076.112.354.189.268.28.242.05.045.014.07.081.333.264.187.007.007.006.007.294.253.01.011.01.01.254.285.03.034.014.046.08.249.122-.017.217-.153c.182-.156.361-.315.54-.475l.223-.288.044-.059.07-.017.291-.07-.023-.343-.004-.07.034-.059.196-.329.057-.097.112-.004.371-.014.105-.003.064.083.149.188.01.013.007.014.192.333.213.32.04.062-.006.076-.024.32.287.163.061.034.03.063.163.357.02.045v.049l-.007.354.226.218.028.028.017.035.145.308.294.226.027.021.02.031.213.326.023.035.007.042.068.346.222.25.051.056.004.076.023.406.139.309c.142.205.283.409.422.617.176.181.348.365.513.552l.173.139.158-.118.2-.319.023-.038.038-.025.334-.222.03-.021.034-.007.29-.072-.006-.392v-.098l.067-.066.29-.274.028-.027.037-.014.382-.156.226-.205.091-.364.027-.104.098-.042.297-.125.004-.354v-.107l.084-.063.328-.239.223-.212.01-.392.003-.132.115-.055.341-.17.054-.136.105-.26.216.174.2.163.074.062.003.097.017.399.068.333.199.254.338.218.07.049.02.086.004.021.027-.027.037-.018.28-.125.146-.312.044-.094.098-.024.368-.09.243-.198.216-.291.027-.039.041-.02.294-.156.128-.306.172-.368.014-.031.024-.024c.159-.17.314-.344.47-.517l.043-.364.014-.104.087-.052.308-.188.155-.288.014-.028.02-.02.243-.243.108-.316.091-.378.01-.035.02-.031.203-.323c.146-.114.436-.052.352.233l-.156.288-.067.371-.007.024-.108.382-.014.048-.053.059-.223.25a9.441 9.441 0 01-.156.319l-.037.07-.078.052-.206.135-.027.281-.01.101-.078.094c-.148.18-.3.357-.456.534l-.138.323c-.047.124-.095.246-.145.367l-.05.129-.13.069-.276.149-.18.243-.026.035-.04.034-.298.247-.068.055-.09.025-.22.055-.095.208-.06.139-.143.066-.273.128-.21.226-.54.579-.162-.784-.05-.264c-.065-.052-.13-.104-.193-.159l-.088-.08-.21-.357-.06-.101-.004-.035-.027-.412-.003-.042c.006-.056.01-.111.013-.167l-.243.132c0 .115.003.233.007.347l.003.09-.08.091-.278.305-.027.024-.182.156.027.365.017.201-.233.125-.203.107-.044.278-.014.094-.114.124-.277.302-.03.032-.109.055-.28.142-.04.045c.013.122.023.243.03.365l.02.447-.463.139-.324.097c-.047.035-.095.066-.142.101l-.152.257-.057.097-.105.076c-.105.08-.21.163-.318.239l-.391.281-.358-.301-.301-.254-.044-.038-.024-.028-.253-.288c-.088-.093-.176-.183-.26-.281l-.058-.069-.01-.017a22.382 22.382 0 00-.405-.66l-.04-.065-.014-.032a7.452 7.452 0 01-.139-.371l-.05-.139v-.059l.003-.305-.105-.139-.104-.139-.01-.097-.04-.357-.109-.198-.236-.215-.095-.083-.024-.063-.125-.333-.209-.236-.115-.128.014-.121.04-.403-.08-.212-.308-.194-.142-.09.017-.149c.013-.129.03-.254.044-.382l-.17-.26-.188-.337-.068-.09-.138.011-.071.145c.013.07.027.139.044.208l.064.261.05.211-.31.149-.227.112c-.047.1-.094.201-.148.298l-.064.069c-.081.101-.156.208-.244.299-.087.093-.169.194-.26.281l-.047.038a5.214 5.214 0 01-.26.198l-.112.083-.152.024c-.114.018-.23.031-.34.049l-.524.073-.159-.507-.091-.298-.135-.156-.24-.212-.297-.215-.19-.136-.054-.225c-.02-.076-.033-.156-.05-.236l-.139-.125-.064-.059-.03-.045-.217-.323-.06-.093-.02-.077-.058-.201c-.054-.035-.108-.073-.159-.107l-.158-.111-.055-.132-.111-.274-.19-.177-.202-.188.014-.232.017-.281-.105-.125-.074-.09-.02-.056-.136-.381-.111-.365c-.051-.086-.105-.173-.152-.263l.033.041-.246-.329-.233-.34-.102-.15.027-.118.068-.315c-.057-.063-.115-.122-.172-.184l-.064-.073-.007-.031-.105-.403c-.044-.295.324-.329.389-.156l.118.337z" fill="#ABA000"/><path d="M40.618 130.623c-2.004-2.058-2.004-5.395 0-7.453a5.036 5.036 0 017.256 0c2.004 2.058 2.004 5.395 0 7.453a5.036 5.036 0 01-7.256 0z" fill="#31332A"/><path d="M42.177 123.612c0 .819 1.003 1.482 2.243 1.482s2.243-.663 2.243-1.482-1.003-1.481-2.243-1.481c-1.24-.004-2.243.662-2.243 1.481z" fill="#636A78"/><path d="M66.853 120.056l.074.378.631.038.051.434.7.024-.534.784 1.287-.295.03.448-.064.493.33.277.487.205.149.375-.196.53-.574.677.422.239.8.104.051.41.237.34-.801.69.868.132-.567.583 1.04.114.155.375-.83.618.932.191-.51.513-.321.458.496.149a5.304 5.304 0 001.98-4.156c0-2.911-2.297-5.274-5.135-5.274a4.97 4.97 0 00-1.188.146z" fill="#31332A"/><path d="M69.23 120.847c-.199.323.112.891.696 1.273.585.382 1.22.43 1.419.108.2-.323-.111-.892-.696-1.274-.584-.381-1.22-.43-1.418-.107z" fill="#636A78"/><path d="M55.973 130.079c.007.049.017.125.038.219.152.749.766 2.758 2.236 2.997 1.513.243 6.93-2.144 7.867-3.095.087-.086.138-.166.138-.229 0-.055-.044-.131-.128-.222-.787-.888-5.03-3.296-6.432-4.083a1.035 1.035 0 00-.996-.024c-1.96.985-2.621 3.417-2.712 4.222-.01.097-.014.17-.01.215z" fill="#FC8B2D"/><path d="M55.973 130.079c.007.049.017.125.038.219.844.093 1.688.124 2.533.152a56.46 56.46 0 002.57 0 78.798 78.798 0 002.57-.083 51.89 51.89 0 002.43-.167c.087-.086.138-.166.138-.229 0-.055-.044-.131-.128-.222a44.626 44.626 0 00-2.446-.118 95.786 95.786 0 00-2.57-.031c-.858 0-1.713.018-2.568.052-.85.042-1.705.097-2.56.208a1.88 1.88 0 00-.007.219zm4.446-2.994c-.064.194.138.461.456.6.317.139.628.094.692-.101.064-.194-.138-.461-.456-.6-.317-.135-.628-.093-.692.101z" fill="#D13301"/><path d="M22.209 182.021h4.475l-.3-13.729v-.059a.953.953 0 01.972-.93c.52.021.922.469.905.999l-.5 13.656 12.036-1.224a.526.526 0 01.57.478.534.534 0 01-.47.587l-8.92.909 10.424 1.943a.533.533 0 01.419.624.528.528 0 01-.514.441c-.03 0-.06-.004-.094-.007l-11.37-2.12 7.458 4.729a.545.545 0 01.17.739.513.513 0 01-.72.173l-9.688-6.141-4.857.004a.527.527 0 01-.52-.534c0-.295.233-.538.524-.538zm19.861-1.124c0 .295.233.534.52.534l4.857-.003 9.688 6.141a.518.518 0 00.72-.177.548.548 0 00-.17-.739l-7.461-4.729 11.373 2.12c.03.006.064.006.094.006a.53.53 0 00.514-.44.54.54 0 00-.422-.625l-10.424-1.943 8.92-.909a.53.53 0 00.466-.586.525.525 0 00-.57-.479l-12.035 1.225.297-8.119-.507-.464-.429-.105-.212.646-.301.368-.098-.087.172 7.82h-4.475a.54.54 0 00-.517.545z" fill="#FC8B2D"/></g><path fill-rule="evenodd" clip-rule="evenodd" d="M60.027 80.904l.748 1.937.624-.245 1.257 3.254 3.802-1.488-.514-1.5c-.191-.576-.295-1.038-.31-1.385-.017-.347.11-.576.378-.687l.178-.07-.748-1.937-1.176.46.356.922-3.064 1.2-.355-.92-1.176.46zm4.435 1.215c.052.296.154.664.306 1.104l.187.557-1.427.56-.864-2.239 1.84-.72c-.086.197-.1.443-.042.738zm-8.759 4.902c.386.167.79.22 1.21.163.625-.086 1.057-.364 1.297-.834l.114.565 1.256-.172-1.344-6.681-1.315.18.461 2.291c-.411-.35-.907-.485-1.485-.406a2.083 2.083 0 00-1.084.468 2.04 2.04 0 00-.64.997c-.12.41-.128.868-.027 1.373.102.505.289.933.562 1.283.273.356.605.614.995.773zm-.096-3.278c.164-.273.415-.432.752-.479.338-.046.64.038.909.251.263.22.437.537.52.951.083.414.043.757-.122 1.03a.999.999 0 01-.76.488 1.113 1.113 0 01-.9-.26c-.269-.214-.444-.528-.528-.942-.083-.413-.04-.76.129-1.04z" fill="#000"/><path d="M47.487 87.601l2.343-5.23c.238-.57.529-.966.871-1.19.336-.225.74-.33 1.214-.315.258.008.512.056.762.144.25.089.454.207.61.354l-.545 1.014a1.268 1.268 0 00-.373-.244 1.223 1.223 0 00-.431-.097.735.735 0 00-.482.133c-.125.09-.238.244-.341.464l-.02.046 2.048 5.099-1.483-.046-1.324-3.433-1.467 3.345-1.382-.044zm-6.004-2.321l2.477.57.595-3.796 1.391.32-.781 4.98-3.868-.889.186-1.185z" fill="#000"/><path fill-rule="evenodd" clip-rule="evenodd" d="M36.744 84.136c.244.463.7.825 1.366 1.086.347.135.701.222 1.064.26.357.035.682.015.974-.06l-.14-1.056a1.782 1.782 0 01-.661.071 2.267 2.267 0 01-.72-.152c-.33-.13-.552-.302-.664-.517-.115-.21-.124-.453-.028-.728l.991.388c.63.246 1.136.313 1.52.2.38-.115.64-.375.781-.78a1.33 1.33 0 00.045-.753 1.46 1.46 0 00-.389-.685 2.263 2.263 0 00-.804-.507c-.64-.25-1.147-.22-1.523.093l.189-.542-1.168-.456-.864 2.481c-.226.647-.216 1.2.03 1.657zm2.109-2.583a1.17 1.17 0 01.618.076c.219.086.376.2.472.341a.515.515 0 01.049.46c-.118.34-.434.41-.945.21l-.856-.336.155-.444a.843.843 0 01.507-.307z" fill="#000"/><path d="M34.102 84.013l-1.245-.75 1.023-1.688L32 80.442l-1.023 1.687-1.253-.756 2.62-4.321 1.254.755-.98 1.615 1.88 1.133.98-1.614 1.245.75-2.621 4.322z" fill="#000"/><path fill-rule="evenodd" clip-rule="evenodd" d="M25.28 69.428l-1.633 1.43.444.482-2.744 2.403 2.705 2.93 1.285-1.047c.496-.397.91-.67 1.242-.817.332-.147.596-.119.793.085l.127.138 1.632-1.43-.836-.906-.776.68-2.18-2.362.777-.68-.837-.906zm.289 4.549c-.27.161-.595.396-.972.704l-.479.386-1.014-1.1 1.886-1.653 1.31 1.418c-.221-.002-.465.08-.731.245zm-7.992-5.991c-.014.398.085.776.298 1.134.314.53.74.825 1.277.886l-.496.286.632 1.067 5.856-3.38-.662-1.115-2.008 1.158c.18-.481.124-.968-.168-1.459a2.126 2.126 0 00-.85-.816 2.26 2.26 0 00-1.187-.246c-.435.026-.874.168-1.316.423-.443.255-.78.562-1.012.92-.237.36-.358.741-.364 1.142zm3.084-1.156c.321.058.566.23.736.517.17.286.203.584.1.893-.111.307-.348.566-.71.775-.363.21-.705.285-1.026.227a1.05 1.05 0 01-.748-.52 1 1 0 01-.088-.89c.103-.309.336-.568.698-.777.363-.21.709-.284 1.038-.225z" fill="#000"/><path d="M14.3 60.432l5.63.173c.606.004 1.07.116 1.39.333.319.212.548.525.688.94.077.227.114.465.114.714 0 .248-.044.467-.13.656l-1.121-.113c.06-.13.095-.267.105-.41a1.084 1.084 0 00-.05-.41.64.64 0 00-.28-.37c-.124-.077-.305-.12-.543-.131h-.049l-4.078 3.59-.44-1.303 2.763-2.37-3.59-.084-.409-1.215zm.086-5.281l.392 2.387 3.6-.635.22 1.34-4.724.834-.612-3.727 1.124-.199z" fill="#000"/><path fill-rule="evenodd" clip-rule="evenodd" d="M14.251 49.355c-.371.4-.565.967-.581 1.699-.009.38.035.751.13 1.112.094.355.233.66.414.913l1-.514a1.781 1.781 0 01-.313-.608 2.23 2.23 0 01-.11-.743c.007-.364.098-.638.271-.823.167-.185.405-.281.713-.288l-.023 1.09c-.015.69.103 1.2.356 1.528.253.322.606.478 1.06.468a1.449 1.449 0 001.305-.845 2.26 2.26 0 00.212-.953c.015-.703-.201-1.178-.65-1.426l.609-.013.028-1.283-2.785.062c-.725.016-1.27.224-1.636.624zm3.34 1.094c.104.18.154.386.149.62-.005.24-.061.432-.167.575a.557.557 0 01-.44.211c-.38.009-.565-.268-.552-.83l.02-.94.499-.011c.216.071.38.196.49.375z" fill="#000"/><path d="M13.044 46.434l.271-1.401 1.9.365.41-2.116-1.9-.365.273-1.41 4.868.934-.273 1.41-1.82-.348-.408 2.115 1.818.35-.271 1.401-4.868-.935z" fill="#000"/><path fill-rule="evenodd" clip-rule="evenodd" d="M24.353 33.385l-2.048-.996-.359.64-3.44-1.675-2.18 3.898 1.528.817c.584.32 1.008.61 1.274.873.265.264.323.535.174.815l-.102.183 2.048.996.674-1.205-.974-.474 1.757-3.14.974.473.674-1.205zm-4.687 2.213a8.192 8.192 0 00-1.064-.655l-.565-.307.818-1.463 2.366 1.152-1.055 1.886c-.07-.217-.237-.422-.5-.613zm2.911-9.67a2.235 2.235 0 00-1.001.758c-.408.53-.55 1.08-.426 1.647l-.447-.386-.82 1.069 5.277 4.56.86-1.12-1.81-1.563c.528-.012.982-.264 1.36-.757a2.485 2.485 0 00.34-2.486 3.058 3.058 0 00-.86-1.16c-.4-.345-.813-.563-1.24-.653a2.073 2.073 0 00-1.233.091zm2.173 2.653c.053.348-.03.665-.251.952-.22.286-.498.44-.834.46-.337.012-.668-.124-.995-.406-.327-.282-.517-.597-.57-.945-.054-.357.03-.679.25-.965.22-.287.499-.436.836-.448.335-.02.666.11.993.393.327.283.517.602.571.959z" fill="#000"/><path d="M28.512 19.521l1.843 5.656c.21.604.276 1.104.195 1.5a1.806 1.806 0 01-.6 1.018 1.987 1.987 0 01-.599.366 1.378 1.378 0 01-.634.104l-.297-1.154c.138.014.274 0 .405-.04a.968.968 0 00.35-.196.662.662 0 00.232-.411c.025-.15 0-.345-.075-.585l-.017-.049-4.666-2.775 1.013-.9 3.105 1.901-1.199-3.596.944-.838zm5.862-1.711l-2.179 1.27 1.847 3.147-1.224.713-2.423-4.129 3.403-1.982.576.982z" fill="#000"/><path fill-rule="evenodd" clip-rule="evenodd" d="M39.123 14.937c-.514-.176-1.138-.121-1.873.162a4.915 4.915 0 00-1.07.572 3.398 3.398 0 00-.782.75l.819.702c.125-.192.295-.37.51-.533.22-.172.455-.307.708-.404.364-.141.666-.17.904-.088.236.077.405.255.506.533l-1.094.422c-.694.268-1.165.584-1.415.948a1.217 1.217 0 00-.142 1.157c.094.256.248.458.463.605.215.148.475.228.782.24.312.01.65-.055 1.015-.196.706-.272 1.113-.663 1.223-1.172l.2.548 1.288-.497-.917-2.512c-.239-.655-.614-1.067-1.125-1.237zm-.066 3.49a1.42 1.42 0 01-.572.388c-.242.093-.45.12-.624.082a.48.48 0 01-.347-.314c-.125-.344.094-.625.66-.843l.943-.364.164.45a.945.945 0 01-.224.6zm6.313-4.925c-.477-.314-1.088-.412-1.835-.292a4.026 4.026 0 00-1.105.343 2.848 2.848 0 00-.849.605l.711.952c.144-.173.33-.32.558-.441.233-.129.478-.214.735-.255.37-.06.666-.015.887.132.22.14.362.372.427.694l-1.11.178c-.706.112-1.2.332-1.486.658-.28.325-.371.724-.275 1.197.06.297.185.55.376.76.19.211.434.361.73.45.301.09.637.104 1.007.045.717-.115 1.159-.43 1.326-.946l.128.634 1.308-.21-.589-2.905c-.153-.758-.468-1.29-.944-1.599zm-.48 3.703a1.165 1.165 0 01-.6.273c-.246.039-.45.016-.616-.068a.599.599 0 01-.298-.421c-.08-.398.166-.643.74-.735l.958-.153.105.52a.936.936 0 01-.288.584zm7.066-4.298c-.4-.372-.967-.565-1.699-.582a4.01 4.01 0 00-1.112.13 2.774 2.774 0 00-.912.415l.513 1c.167-.136.37-.24.608-.313.244-.08.492-.116.744-.11.363.007.637.098.822.271.185.167.282.405.288.713l-1.089-.023c-.69-.016-1.2.103-1.528.356-.323.253-.479.606-.469 1.06a1.45 1.45 0 00.846 1.305c.272.133.59.203.953.211.702.016 1.177-.2 1.425-.648l.014.607 1.282.029-.062-2.785c-.016-.725-.224-1.27-.624-1.636zm-1.094 3.339a1.153 1.153 0 01-.62.15c-.24-.006-.431-.061-.574-.167a.557.557 0 01-.212-.44c-.008-.38.268-.565.83-.553l.94.02.012.5a.879.879 0 01-.376.49z" fill="#000"/><path d="M54.44 13.045l1.401.271-.365 1.9 2.116.41.365-1.9 1.41.273-.934 4.867-1.41-.273.348-1.818-2.115-.41-.35 1.819-1.4-.272.934-4.867z" fill="#000"/><path fill-rule="evenodd" clip-rule="evenodd" d="M67.49 24.353l.996-2.048-.64-.358 1.674-3.442-3.897-2.18-.818 1.529c-.319.583-.61 1.008-.873 1.273-.263.266-.535.324-.814.175l-.183-.102-.996 2.048 1.205.674.473-.974 3.141 1.757-.473.974 1.205.674zm-2.213-4.687c.197-.26.415-.615.655-1.064l.306-.566 1.463.819-1.151 2.366-1.887-1.055c.218-.07.422-.237.614-.5zm9.669 2.911a2.235 2.235 0 00-.757-1.002c-.53-.407-1.08-.55-1.647-.425l.386-.448-1.069-.82-4.56 5.278 1.12.86 1.563-1.81c.012.528.264.982.757 1.36a2.485 2.485 0 002.486.339 3.055 3.055 0 001.16-.86c.345-.4.563-.812.653-1.238a2.073 2.073 0 00-.092-1.234zm-2.652 2.173a1.208 1.208 0 01-.952-.251c-.287-.22-.44-.499-.46-.834-.012-.337.124-.668.406-.995.282-.327.597-.517.945-.57.357-.054.679.03.965.25.287.22.436.498.448.835.02.336-.111.667-.393.994-.283.327-.602.517-.959.57z" fill="#000"/><path d="M80.899 27.621l-5.655 1.843c-.605.211-1.105.276-1.5.195a1.805 1.805 0 01-1.019-.6 1.989 1.989 0 01-.366-.599 1.38 1.38 0 01-.104-.634l1.154-.297a.982.982 0 00.236.755.66.66 0 00.411.232c.15.025.345 0 .585-.074l.05-.017 2.775-4.666.9 1.012-1.902 3.106 3.596-1.2.839.944zm1.711 5.862l-1.27-2.179-3.146 1.846-.713-1.223 4.128-2.423 1.983 3.403-.982.576z" fill="#000"/><path fill-rule="evenodd" clip-rule="evenodd" d="M85.484 38.232c.175-.514.121-1.138-.162-1.873a4.917 4.917 0 00-.572-1.07 3.402 3.402 0 00-.75-.782l-.702.82c.191.124.369.294.533.51.172.218.306.454.404.707.14.365.17.666.088.904-.077.236-.255.405-.533.506l-.423-1.093c-.267-.694-.583-1.166-.947-1.416a1.218 1.218 0 00-1.157-.141 1.222 1.222 0 00-.606.462 1.457 1.457 0 00-.24.782c-.01.312.056.65.196 1.015.273.706.663 1.113 1.172 1.223l-.548.2.497 1.288 2.513-.917c.655-.239 1.067-.614 1.237-1.125zm-3.49-.066a1.419 1.419 0 01-.388-.572c-.093-.241-.12-.45-.083-.624a.48.48 0 01.315-.346c.344-.126.625.094.842.658l.365.944-.45.164a.943.943 0 01-.6-.224zm4.924 6.314c.315-.477.413-1.089.293-1.836a4.025 4.025 0 00-.343-1.105 2.847 2.847 0 00-.605-.849l-.952.711c.173.144.32.33.441.558.129.233.214.478.255.735.06.37.015.666-.132.887-.14.22-.372.362-.693.427l-.178-1.11c-.113-.706-.333-1.2-.659-1.486-.325-.28-.724-.371-1.197-.275-.297.06-.55.185-.76.376-.211.19-.361.434-.45.73a2.274 2.274 0 00-.044 1.008c.114.716.43 1.158.945 1.325l-.635.128.21 1.309 2.906-.59c.758-.153 1.29-.468 1.599-.943zM83.216 44a1.163 1.163 0 01-.273-.601c-.039-.245-.016-.45.068-.616a.598.598 0 01.421-.298c.398-.08.643.166.735.74l.153.958-.52.106a.935.935 0 01-.584-.289zm4.298 7.065c.371-.4.565-.966.581-1.698a4.001 4.001 0 00-.13-1.113 2.786 2.786 0 00-.415-.912l-1 .514c.136.166.24.369.314.607.08.245.116.492.11.744-.008.363-.098.637-.271.823-.168.185-.406.28-.714.287l.024-1.089c.015-.69-.104-1.2-.356-1.528-.253-.322-.606-.479-1.06-.469-.284.007-.54.083-.766.228a1.516 1.516 0 00-.54.618c-.132.272-.203.59-.21.953-.016.702.2 1.178.648 1.425l-.608.014-.028 1.282 2.784-.061c.726-.016 1.271-.225 1.637-.625zm-3.34-1.093a1.152 1.152 0 01-.149-.62c.005-.24.06-.432.167-.575a.557.557 0 01.44-.212c.38-.008.565.269.552.831l-.02.94-.5.01a.878.878 0 01-.49-.374z" fill="#000"/><path d="M87.83 54.44l-.272 1.402-1.9-.365-.41 2.116 1.9.364-.272 1.411-4.868-.935.273-1.41 1.819.35.41-2.116-1.82-.35.272-1.401 4.868.935z" fill="#000"/><defs><clipPath id="clip0"><path fill="#fff" transform="translate(0 95)" d="M0 0h180v99H0z"/></clipPath></defs></svg>