<svg xmlns="http://www.w3.org/2000/svg" width="417" height="367" fill="none"><path fill-rule="evenodd" clip-rule="evenodd" d="M-46 357.273l3.706 8.964h10.15L-46 333.981v23.292zm0-26.93v-10.188c1.389-.405 2.897-.607 4.525-.607 1.765 0 3.51.274 5.233.82 1.724.548 3.131 1.304 4.223 2.272l-3.593 7.003a8.446 8.446 0 00-2.616-1.577c-.987-.379-1.964-.568-2.931-.568-1.345 0-2.437.326-3.28.977-.557.434-1.077 1.056-1.561 1.868zm424.573-167.912l38.064 9.042-1.593-9.329-24.296-5.573 21.077-13.271-1.71-10.013-31.206 20.253-.331-.072c-1.605-.408-2.799-.972-3.583-1.691-.784-.72-1.289-1.742-1.516-3.069-.163-.954-.141-1.95.065-2.987a8.452 8.452 0 011.114-2.847l-7.504-2.365c-.769 1.24-1.277 2.757-1.525 4.549a17.265 17.265 0 00.073 5.3c.546 3.193 1.799 5.783 3.759 7.775 1.961 1.989 4.997 3.422 9.112 4.298zm.528-38.903c3.01.027 6.044-.798 9.104-2.476 3.058-1.679 5.386-3.795 6.983-6.35 1.595-2.555 2.409-5.314 2.438-8.28.029-2.966-.714-5.832-2.229-8.599-2.243-4.094-5.241-6.503-8.991-7.227l3.427-1.88-4.515-8.244-40.466 22.2 4.727 8.631 13.876-7.612c-1.205 3.49-.766 7.135 1.315 10.934 1.516 2.766 3.53 4.935 6.044 6.505 2.514 1.571 5.276 2.37 8.287 2.398zm3.178-27.538c2.27.6 4.011 2.009 5.223 4.222 1.213 2.212 1.461 4.438.747 6.678-.716 2.238-2.326 4.046-4.832 5.42-2.507 1.375-4.895 1.761-7.165 1.161-2.27-.602-4.011-2.009-5.223-4.222-1.213-2.213-1.462-4.44-.747-6.678.715-2.239 2.325-4.045 4.832-5.42 2.506-1.376 4.895-1.763 7.165-1.161zm-43.637-18.118l8.656 7.728 2.294-21.626 19.672-4.25-7.81-6.972-15.64 3.708-3.951-3.529 8.771-9.84-7.34-6.552-22.576 25.332 7.338 6.551 8.562-9.605 3.81 3.402-1.786 15.653zm8.645 249.245l-18.786-28.262-8.187 5.452 7.123 10.716-4.252 2.831-14.682-5.684-9.658 6.43 20.328 7.685-.86 20.123 8.714-5.802.365-16.081 4.409-2.935 7.298 10.979 8.188-5.452zM301.4 51.505c1.529.794 3.088.939 4.674.435 1.585-.504 2.785-1.54 3.598-3.109.831-1.605.98-3.175.448-4.707-.533-1.53-1.564-2.694-3.094-3.487-1.531-.793-3.074-.965-4.631-.518-1.557.448-2.752 1.476-3.583 3.081-.812 1.569-.966 3.147-.462 4.734.503 1.588 1.519 2.778 3.05 3.571zm-26.644 310.533c4.528-1.124 7.622-3.41 9.279-6.854l.94 3.797 9.117-2.264-11.11-44.826-9.546 2.37 3.81 15.371c-3.064-2.057-6.697-2.563-10.899-1.52-3.059.76-5.669 2.155-7.829 4.187-2.159 2.031-3.636 4.499-4.432 7.406-.795 2.905-.773 6.053.067 9.441.84 3.389 2.29 6.181 4.35 8.379 2.061 2.196 4.52 3.688 7.377 4.474 2.858.786 5.817.799 8.876.039zm1.828-25.513c1.98 1.263 3.314 3.282 4.002 6.059.688 2.776.452 5.186-.708 7.229-1.161 2.043-2.965 3.369-5.413 3.976-2.447.608-4.661.28-6.641-.983-1.98-1.264-3.315-3.284-4.003-6.06-.688-2.777-.451-5.186.709-7.229 1.161-2.043 2.965-3.369 5.412-3.977 2.448-.607 4.662-.28 6.642.985zM261.622 22.492l25.01 5.737c.489-1.571.748-2.418.775-2.541.79-3.444.734-6.639-.165-9.586-.9-2.946-2.5-5.417-4.803-7.412s-5.072-3.365-8.307-4.107c-3.319-.76-6.487-.72-9.503.119-3.017.84-5.591 2.385-7.723 4.636-2.133 2.251-3.57 4.997-4.312 8.235-.751 3.28-.645 6.39.321 9.33.965 2.94 2.715 5.467 5.25 7.58 2.533 2.114 5.664 3.597 9.393 4.452 5.981 1.372 10.936.632 14.867-2.221l-3.833-6.705c-1.401.844-2.826 1.37-4.274 1.577-1.449.208-3.033.113-4.754-.281-2.499-.574-4.452-1.647-5.859-3.222-1.408-1.574-2.102-3.437-2.083-5.591zm10.909-10.638c2.129.489 3.789 1.528 4.978 3.116 1.188 1.59 1.706 3.466 1.556 5.633l-16.284-3.736c.815-2.056 2.102-3.53 3.858-4.422 1.757-.892 3.72-1.089 5.892-.591zm-41.727 315.644c.968 0 1.945.189 2.931.568a8.444 8.444 0 012.617 1.577l3.593-7.003c-1.092-.968-2.5-1.724-4.223-2.272a17.233 17.233 0 00-5.233-.82c-3.236 0-5.999.799-8.29 2.397-2.29 1.6-4.213 4.354-5.768 8.266l-15.32 36.026h9.456l9.583-23.029 9.519 23.029h10.15L225.13 332.04l.126-.315c.673-1.514 1.43-2.597 2.27-3.25.841-.651 1.934-.977 3.278-.977zM213.833 23.975c3.446 0 6.598-.714 9.457-2.144v12.618h9.834V.505h-9.834v14.259c-2.27 1.094-4.687 1.64-7.25 1.64-2.017 0-3.562-.462-4.633-1.387-1.072-.925-1.608-2.419-1.608-4.48V.505h-9.835v10.662c0 4.376 1.167 7.603 3.499 9.686 2.333 2.082 5.789 3.122 10.37 3.122zm-35.077 327.751c1.072.924 1.608 2.418 1.608 4.479v10.032h9.835v-10.662c0-4.375-1.167-7.604-3.499-9.686-2.333-2.082-5.789-3.123-10.371-3.123-3.445 0-6.597.715-9.456 2.145v-12.618h-9.835v33.944h9.835v-14.259a16.484 16.484 0 017.25-1.641c2.017 0 3.561.463 4.633 1.389zm-19.08-304.532c3.236 0 5.999-.8 8.29-2.398 2.29-1.599 4.213-4.353 5.768-8.265L189.053.505h-9.456l-9.582 23.029L160.496.505h-10.15l14.689 34.196-.127.316c-.673 1.514-1.429 2.597-2.269 3.25-.841.65-1.934.977-3.278.977-.967 0-1.945-.19-2.932-.568a8.446 8.446 0 01-2.616-1.577l-3.593 7.003c1.092.967 2.499 1.725 4.223 2.272 1.723.546 3.468.82 5.233.82zm-36.235 319.548c3.404 0 6.484-.747 9.236-2.24 2.753-1.494 4.917-3.576 6.493-6.246 1.576-2.672 2.364-5.669 2.364-8.991 0-3.365-.797-6.373-2.396-9.022-1.596-2.65-3.865-4.722-6.808-6.215-2.941-1.494-6.325-2.24-10.15-2.24-6.135 0-10.801 1.83-13.996 5.489l5.233 5.679c1.177-1.136 2.449-1.967 3.814-2.493 1.367-.526 2.932-.788 4.697-.788 2.564 0 4.708.609 6.431 1.83 1.723 1.219 2.816 2.88 3.278 4.984h-25.659c-.126 1.64-.189 2.524-.189 2.65 0 3.533.767 6.635 2.301 9.306 1.535 2.671 3.647 4.721 6.336 6.152 2.69 1.429 5.695 2.145 9.015 2.145zm-5.61-9.37c-1.513-1.283-2.437-2.996-2.775-5.141h16.706c-.335 2.186-1.26 3.911-2.773 5.173-1.513 1.262-3.383 1.893-5.611 1.893-2.185 0-4.034-.642-5.547-1.925zm5.605-322.418c3.152 0 6.02-.726 8.605-2.176 2.585-1.452 4.612-3.492 6.084-6.121 1.471-2.628 2.206-5.688 2.206-9.18 0-3.49-.735-6.55-2.206-9.18-1.472-2.628-3.499-4.669-6.084-6.12C129.456.726 126.588 0 123.436 0c-4.665 0-8.217 1.473-10.654 4.417V.505h-9.394v46.184h9.835V30.853c2.479 2.735 5.883 4.101 10.213 4.101zm-1.702-26.878c2.522 0 4.591.851 6.209 2.555 1.618 1.704 2.427 3.986 2.427 6.846s-.809 5.142-2.427 6.846c-1.618 1.703-3.687 2.555-6.209 2.555s-4.592-.852-6.21-2.555c-1.619-1.704-2.427-3.985-2.427-6.846 0-2.86.808-5.142 2.427-6.846 1.618-1.704 3.688-2.555 6.21-2.555zm-40.208 334.28c1.177 1.114 2.627 1.672 4.35 1.672 1.724 0 3.173-.558 4.35-1.672 1.177-1.115 1.765-2.577 1.765-4.385 0-1.766-.588-3.239-1.765-4.417-1.177-1.177-2.626-1.766-4.35-1.766-1.723 0-3.173.589-4.35 1.766-1.176 1.178-1.765 2.651-1.765 4.417 0 1.808.589 3.27 1.765 4.385zM69.078 21.578l9.079 12.871h11.6L77.084 16.783 88.937.505H78.471l-9.204 13.186h-5.296V.505h-9.835v33.944h9.835V21.578h5.106zm-5.023 310.715H54.22v12.871h-5.106l-9.078-12.871h-11.6l12.672 17.666-11.853 16.278h10.466l9.204-13.187h5.295v13.187h9.835v-33.944zM17.538 33.187c1.176 1.178 2.626 1.767 4.35 1.767 1.723 0 3.172-.589 4.35-1.767 1.176-1.177 1.765-2.65 1.765-4.416 0-1.808-.59-3.27-1.765-4.385-1.177-1.115-2.627-1.672-4.35-1.672-1.724 0-3.174.557-4.35 1.672-1.177 1.115-1.765 2.577-1.765 4.385 0 1.766.588 3.24 1.765 4.416zM-5.218 366.742c4.665 0 8.217-1.473 10.653-4.416v3.911h9.394v-46.184H4.994v15.836c-2.48-2.735-5.883-4.101-10.212-4.101-3.152 0-6.021.726-8.605 2.177-2.585 1.451-4.612 3.491-6.085 6.12-1.47 2.628-2.206 5.688-2.206 9.18 0 3.491.736 6.551 2.206 9.18 1.473 2.629 3.5 4.669 6.085 6.121 2.584 1.45 5.453 2.176 8.605 2.176zm1.702-26.878c2.521 0 4.592.852 6.21 2.555 1.618 1.704 2.427 3.985 2.427 6.846 0 2.86-.81 5.142-2.428 6.846-1.617 1.703-3.688 2.555-6.21 2.555-2.52 0-4.59-.852-6.21-2.555-1.616-1.704-2.426-3.986-2.426-6.846 0-2.861.81-5.142 2.427-6.846 1.618-1.703 3.688-2.555 6.21-2.555zM-20.604 25.238c-1.724-1.22-2.816-2.881-3.278-4.985H1.776c.126-1.64.19-2.523.19-2.65 0-3.533-.768-6.634-2.302-9.306-1.535-2.67-3.647-4.721-6.336-6.152C-9.362.715-12.367 0-15.687 0c-3.404 0-6.483.748-9.235 2.24-2.754 1.493-4.918 3.576-6.494 6.246-1.576 2.672-2.364 5.668-2.364 8.99 0 3.367.798 6.373 2.396 9.024 1.596 2.65 3.866 4.722 6.808 6.214 2.942 1.494 6.325 2.24 10.15 2.24 6.136 0 10.801-1.83 13.996-5.49l-5.233-5.677c-1.177 1.135-2.449 1.966-3.814 2.492-1.366.526-2.932.788-4.697.788-2.564 0-4.707-.609-6.43-1.83zm4.98-17.793c2.185 0 4.035.642 5.548 1.925s2.437 2.996 2.774 5.142h-16.706c.335-2.187 1.26-3.912 2.774-5.174 1.513-1.262 3.382-1.893 5.61-1.893zM341.8 287.187c.086 1.662.783 3.087 2.094 4.27 1.341 1.212 2.82 1.754 4.435 1.627 1.615-.128 3.001-.832 4.155-2.112 1.154-1.281 1.712-2.732 1.674-4.352-.039-1.622-.729-3.038-2.07-4.25-1.311-1.183-2.797-1.733-4.459-1.647-1.662.084-3.07.768-4.225 2.048-1.154 1.281-1.689 2.752-1.604 4.416zm37.728-45.062c-3.086.182-5.975 1.229-8.663 3.142-2.69 1.912-4.923 4.562-6.702 7.951-2.853 5.436-3.404 10.421-1.653 14.953l7.457-1.996c-.458-1.571-.602-3.084-.431-4.538.169-1.455.665-2.964 1.486-4.528 1.192-2.272 2.729-3.887 4.609-4.846 1.88-.961 3.858-1.156 5.934-.587l-11.933 22.734c1.393.874 2.145 1.341 2.256 1.4 3.125 1.643 6.226 2.405 9.303 2.289 3.075-.118 5.871-1.035 8.388-2.753 2.514-1.719 4.546-4.048 6.09-6.989 1.583-3.017 2.354-6.093 2.314-9.225-.041-3.134-.877-6.019-2.506-8.658-1.63-2.639-3.915-4.731-6.854-6.276-2.977-1.565-6.007-2.257-9.095-2.073zm5.243 26.845c-1.839.744-3.784.766-5.838.066l7.769-14.801c1.778 1.314 2.874 2.937 3.286 4.864.413 1.927.102 3.877-.934 5.851-1.017 1.936-2.445 3.276-4.283 4.02zm7.232-55.618l-12.463-1.909-1.488 9.729 33.527 5.134 1.487-9.729-14.083-2.157c-.738-2.41-.912-4.884-.524-7.42.305-1.996.995-3.454 2.072-4.374 1.075-.92 2.631-1.225 4.667-.913l9.908 1.517 1.488-9.729-10.531-1.613c-4.322-.661-7.686.004-10.095 1.997-2.41 1.992-3.96 5.255-4.654 9.787-.52 3.409-.292 6.635.689 9.68z" fill="#E9E9E9"/></svg>