<svg xmlns="http://www.w3.org/2000/svg" width="450" height="204" fill="none"><path fill-rule="evenodd" clip-rule="evenodd" d="M563.441 203.271c3.404 0 6.483-.747 9.236-2.24 2.753-1.494 4.917-3.576 6.493-6.246 1.576-2.672 2.364-5.669 2.364-8.991 0-3.365-.798-6.373-2.396-9.022-1.597-2.65-3.866-4.722-6.809-6.215-2.94-1.494-6.324-2.24-10.149-2.24-6.136 0-10.801 1.83-13.996 5.49l5.233 5.678c1.177-1.136 2.449-1.967 3.814-2.493 1.367-.526 2.932-.788 4.696-.788 2.565 0 4.708.609 6.431 1.83 1.724 1.219 2.817 2.88 3.278 4.984h-25.658c-.126 1.64-.189 2.524-.189 2.65 0 3.533.767 6.635 2.301 9.306 1.534 2.671 3.647 4.721 6.336 6.152 2.69 1.429 5.695 2.145 9.015 2.145zm-5.611-9.37c-1.513-1.283-2.437-2.996-2.774-5.141h16.706c-.335 2.186-1.26 3.911-2.773 5.173-1.513 1.262-3.383 1.893-5.611 1.893-2.185 0-4.035-.642-5.548-1.925zm-36.305-15.016c1.178 1.114 2.627 1.672 4.35 1.672 1.724 0 3.174-.558 4.351-1.672 1.176-1.115 1.765-2.577 1.765-4.385 0-1.766-.589-3.239-1.765-4.416-1.177-1.178-2.627-1.767-4.351-1.767-1.723 0-3.172.589-4.35 1.767-1.176 1.177-1.765 2.65-1.765 4.416 0 1.808.589 3.27 1.765 4.385zm-17.47-10.063h-9.835v12.871h-5.106l-9.078-12.871h-11.6l12.671 17.666-11.852 16.278h10.465l9.204-13.187h5.296v13.187h9.835v-33.944zm-69.274 34.449c4.665 0 8.218-1.473 10.654-4.416v3.911h9.394v-46.184h-9.835v15.836c-2.479-2.735-5.883-4.101-10.213-4.101-3.152 0-6.021.726-8.605 2.177-2.584 1.451-4.612 3.491-6.084 6.12-1.47 2.628-2.206 5.688-2.206 9.18 0 3.491.736 6.551 2.206 9.18 1.472 2.629 3.5 4.669 6.084 6.121 2.584 1.45 5.453 2.176 8.605 2.176zm1.703-26.878c2.521 0 4.592.852 6.209 2.555 1.619 1.704 2.428 3.985 2.428 6.846 0 2.86-.809 5.142-2.428 6.846-1.617 1.703-3.688 2.555-6.209 2.555-2.522 0-4.592-.852-6.211-2.555-1.617-1.704-2.426-3.986-2.426-6.846 0-2.861.809-5.142 2.426-6.846 1.619-1.703 3.689-2.555 6.211-2.555zm-34.712-11.798c.988.378 1.86.905 2.616 1.577l3.593-7.003c-1.092-.968-2.499-1.724-4.224-2.272a17.222 17.222 0 00-5.232-.82c-3.236 0-5.999.799-8.29 2.397-2.29 1.6-4.213 4.354-5.768 8.266l-15.32 36.026h9.457l9.582-23.029 9.519 23.029h10.15l-14.689-34.197.126-.315c.673-1.514 1.429-2.597 2.27-3.25.841-.651 1.934-.977 3.278-.977.967 0 1.945.189 2.932.568zm-53.357 38.171h9.835v-10.662c0-4.375-1.167-7.604-3.5-9.686-2.332-2.081-5.788-3.123-10.369-3.123-3.447 0-6.599.715-9.457 2.145v-12.618h-9.835v33.944h9.835v-14.259c2.269-1.094 4.687-1.64 7.25-1.64 2.017 0 3.562.462 4.633 1.388 1.072.924 1.608 2.418 1.608 4.479v10.032zm-47.688-1.735c2.753-1.494 4.917-3.576 6.494-6.246 1.575-2.672 2.364-5.669 2.364-8.991 0-3.365-.798-6.373-2.396-9.022-1.596-2.65-3.866-4.722-6.808-6.215-2.942-1.494-6.325-2.24-10.15-2.24-6.136 0-10.801 1.83-13.995 5.49l5.232 5.678c1.177-1.136 2.449-1.967 3.814-2.493 1.366-.526 2.931-.788 4.697-.788 2.564 0 4.707.609 6.43 1.83 1.724 1.219 2.816 2.88 3.278 4.984h-25.658c-.126 1.64-.189 2.524-.189 2.65 0 3.533.767 6.635 2.301 9.306 1.535 2.671 3.646 4.721 6.335 6.152 2.691 1.429 5.696 2.145 9.016 2.145 3.404 0 6.483-.747 9.235-2.24zm-14.846-7.13c-1.513-1.283-2.437-2.996-2.774-5.141h16.706c-.336 2.186-1.261 3.911-2.774 5.173-1.513 1.262-3.382 1.893-5.61 1.893-2.186 0-4.035-.642-5.548-1.925zm-36.318-15.016c1.177 1.114 2.627 1.672 4.35 1.672 1.724 0 3.174-.558 4.35-1.672 1.177-1.115 1.765-2.577 1.765-4.385 0-1.766-.588-3.239-1.765-4.416-1.176-1.178-2.626-1.767-4.35-1.767-1.723 0-3.173.589-4.35 1.767-1.176 1.177-1.765 2.65-1.765 4.416 0 1.808.589 3.27 1.765 4.385zm-27.309-10.063v12.871h-5.106l-9.079-12.871H196.47l12.671 17.666-11.851 16.278h10.464l9.204-13.187h5.296v13.187h9.835v-33.944h-9.835zm-52.855 33.556l9.326 1.126 5.53-45.851-9.764-1.18-1.896 15.723c-2.135-3.012-5.351-4.777-9.648-5.296-3.13-.378-6.065-.002-8.804 1.129-2.74 1.13-4.997 2.912-6.773 5.345-1.775 2.434-2.871 5.383-3.29 8.85-.418 3.466-.054 6.592 1.091 9.378 1.147 2.786 2.915 5.055 5.308 6.806 2.391 1.751 5.153 2.816 8.282 3.193 4.632.56 8.334-.477 11.106-3.106l-.468 3.883zm-5.73-27.257c2.504.303 4.458 1.397 5.859 3.282 1.403 1.885 1.933 4.247 1.59 7.088-.342 2.839-1.418 5.007-3.229 6.505-1.81 1.497-3.968 2.094-6.471 1.792-2.503-.303-4.456-1.396-5.859-3.282-1.402-1.885-1.933-4.248-1.59-7.088.342-2.84 1.42-5.007 3.229-6.504 1.811-1.498 3.968-2.095 6.471-1.793zm-25.935-25.238a17.242 17.242 0 00-4.349-3.026c-2.911-1.414-5.745-1.903-8.504-1.467-2.758.437-5.69 2.074-8.796 4.913l-29.505 25.71 8.506 4.134 18.672-16.526-1.489 24.877 9.131 4.438 1.712-37.183.251-.229c1.267-1.068 2.419-1.711 3.46-1.931 1.041-.218 2.167-.035 3.376.554.87.422 1.667 1.02 2.389 1.792a8.46 8.46 0 011.665 2.562l6.289-4.728c-.561-1.348-1.496-2.644-2.808-3.89zM9.355 0l8.282 6.498L27.39 0h8.139l-.213 6.049-13.173 8.626-.18 5.108 12.853.453-.346 9.837L.574 28.877l.346-9.836 13.168.464.187-5.296L1.43 4.539 1.59 0h7.765zm20.058 58.06c1.339.915 2.891 1.18 4.656.796 1.725-.375 3.039-1.263 3.938-2.664.9-1.4 1.167-2.944.802-4.63-.367-1.684-1.25-2.977-2.65-3.878-1.398-.9-2.961-1.164-4.686-.789-1.766.384-3.069 1.27-3.907 2.658-.838 1.387-1.075 2.924-.709 4.609.366 1.686 1.218 2.986 2.556 3.899zm.915 19.734c-1.52.625-2.336.966-2.45 1.023-3.152 1.59-5.574 3.672-7.268 6.245-1.693 2.573-2.572 5.383-2.639 8.43-.065 3.048.649 6.056 2.142 9.023 1.532 3.042 3.584 5.458 6.154 7.246 2.572 1.789 5.404 2.787 8.496 2.994 3.093.206 6.122-.438 9.086-1.933 3.004-1.514 5.328-3.581 6.974-6.2 1.646-2.62 2.474-5.58 2.482-8.882.01-3.3-.848-6.66-2.568-10.08-2.761-5.484-6.493-8.83-11.196-10.039l-2.713 7.232c1.544.541 2.857 1.304 3.94 2.287 1.085.985 2.023 2.266 2.818 3.844 1.153 2.291 1.574 4.481 1.26 6.57-.312 2.09-1.303 3.813-2.973 5.173L30.328 77.794zm.614 25.477c-1.806-.784-3.211-2.171-4.214-4.163-.983-1.952-1.243-3.895-.779-5.824.465-1.93 1.578-3.527 3.34-4.793l7.518 14.932c-2.103.684-4.058.633-5.865-.152zM66.898 131.5l8.824-9.014-7.025-6.888-23.736 24.247 7.025 6.888 9.971-10.186a16.51 16.51 0 016.326 3.906c1.441 1.413 2.22 2.826 2.339 4.237.12 1.412-.543 2.854-1.984 4.326l-7.015 7.166 7.025 6.888 7.457-7.616c3.058-3.126 4.483-6.248 4.272-9.369-.21-3.121-1.951-6.285-5.224-9.495-2.461-2.412-5.213-4.11-8.255-5.09z" fill="#E9E9E9"/></svg>