<svg xmlns="http://www.w3.org/2000/svg" width="226" height="320" fill="none"><path fill-rule="evenodd" clip-rule="evenodd" d="M460 180.883v9.271c-.816-.585-1.446-1.416-1.89-2.493-.617-1.501-.631-2.96-.041-4.372.421-1.008 1.065-1.81 1.931-2.406zm-21.647 42.999l-11.872-28.848-7.57 3.115 7.128 17.32-14.41-11.063-3.543 1.458-2.685 18.035-7.105-17.266-7.57 3.115 11.979 28.804 7.838-3.226 2.962-20.719 16.097 12.876 8.751-3.601zm-61.397 25.768c3.043-1.252 5.511-3.01 7.405-5.273 1.893-2.263 3.057-4.801 3.489-7.613.434-2.812.062-5.647-1.115-8.507-1.177-2.861-2.908-5.136-5.196-6.828-2.286-1.693-4.899-2.677-7.837-2.951-2.938-.275-5.928.213-8.971 1.465-3.041 1.252-5.501 3.006-7.376 5.262-1.876 2.255-3.03 4.79-3.464 7.602-.433 2.811-.062 5.647 1.116 8.507 1.176 2.86 2.908 5.136 5.195 6.828 2.288 1.692 4.891 2.68 7.811 2.963 2.92.281 5.902-.203 8.943-1.455zm-9.4-22.843c2.148-.884 4.217-.889 6.209-.015 1.991.873 3.487 2.524 4.488 4.956 1 2.43 1.1 4.657.3 6.679-.8 2.022-2.273 3.475-4.421 4.359-2.148.884-4.208.885-6.182.005-1.973-.881-3.461-2.537-4.461-4.967-1-2.432-1.109-4.654-.327-6.669.782-2.015 2.247-3.464 4.394-4.348zm-39.039 42.275l7.004-22.947 7.061 17.159 8.322-3.425-11.872-28.848-7.731 3.181-6.951 22.926-7.061-17.159-8.322 3.424 11.872 28.849 7.678-3.16zM144.668.006h1.864l4.917 2.283c-1.441 4.23-4.774 7.42-9.999 9.57-3.257 1.34-6.4 1.892-9.427 1.653-3.028-.237-5.685-1.203-7.972-2.895-2.287-1.692-4.019-3.968-5.196-6.829a17.217 17.217 0 01-1.087-3.782h16.984l-6.497 2.673c1.129 1.627 2.641 2.656 4.535 3.087 1.894.434 3.933.2 6.116-.698 1.503-.618 2.744-1.39 3.724-2.316a10.143 10.143 0 002.038-2.746zm-44.978 0l9.634 15.998 3.83-2.304 7.299 12.12-7.213 4.34-3.47-5.762L90.967 35.71l3.47 5.762-7.213 4.34-7.298-12.121 1.094-.658c1.639-1.03 2.194-2.696 1.668-4.996-.528-2.3-1.775-5.27-3.742-8.916L73.73 9.674 89.798.006h9.892zm65.771 0h3.573l-3.055 1.257-.518-1.257zm78.679 296.238c.486-2.81.187-5.643-.896-8.497-1.098-2.892-2.765-5.215-5.004-6.97-2.239-1.755-4.868-2.794-7.888-3.116-3.019-.322-6.176.142-9.469 1.392-5.283 2.005-8.703 5.102-10.26 9.29l6.357 3.169c.643-1.36 1.466-2.489 2.471-3.387 1.004-.899 2.266-1.636 3.786-2.212 2.208-.838 4.252-1.015 6.133-.53 1.881.485 3.364 1.555 4.448 3.212l-22.091 8.384c.426 1.451.66 2.231.701 2.339 1.152 3.036 2.823 5.45 5.015 7.244 2.192 1.794 4.679 2.865 7.461 3.216 2.782.349 5.603-.018 8.461-1.102 2.931-1.113 5.338-2.761 7.221-4.943 1.884-2.183 3.068-4.679 3.554-7.489zm-18.661 6.214c-1.721-.608-3.075-1.779-4.065-3.512l14.384-5.459c.423 1.989.19 3.773-.701 5.352-.892 1.579-2.295 2.732-4.214 3.46-1.881.714-3.683.767-5.404.159zM84.373 11.932l8.756-5.267 8.435 14.008-11.292 6.794c.324-1.413.124-3.075-.597-4.987-.722-1.91-1.85-4.255-3.387-7.03l-1.914-3.518zm97.076 307.284l15.928-1.05-2.029-31.134-16.623 1.096c-4.208.278-7.325 1.257-9.349 2.941-2.022 1.682-2.943 3.932-2.759 6.749.241 3.704 2.237 6.051 5.985 7.045-1.425.752-2.494 1.743-3.209 2.972-.714 1.229-1.023 2.614-.921 4.158.165 2.546 1.395 4.45 3.688 5.714 2.292 1.262 5.389 1.766 9.289 1.509zm.411-6.188c-3.166.209-4.821-.786-4.965-2.985-.146-2.238 1.366-3.461 4.531-3.669l6.835-.451.434 6.655-6.835.45zm-6.741-15.073c-.149-2.276 1.438-3.524 4.758-3.743l7.588-.499.449 6.886-7.762.511c-1.659.11-2.894-.09-3.703-.598-.809-.509-1.253-1.362-1.33-2.557zM49.736 83.108l-7.94-22.59 15.845 9.67 4.695-7.67-26.64-16.26-4.33 7.078 7.909 22.64-15.845-9.671-4.695 7.672 26.639 16.259 4.362-7.128zm-35.642-25.22l-3.09 5.048c5.137 3.091 9.482 1.732 13.037-4.076 3.574-5.841 2.813-10.339-2.284-13.495l-3.15 5.147c1.157.706 1.858 1.576 2.108 2.613.25 1.036.012 2.148-.715 3.336-.727 1.188-1.6 1.89-2.616 2.108-1.018.218-2.114-.009-3.29-.681zm23.452 50.255c-.737-2.836-2.122-5.25-4.154-7.24-2.033-1.99-4.555-3.341-7.567-4.053-3.012-.712-5.874-.633-8.586.236-2.711.87-5.035 2.407-6.97 4.611-1.935 2.205-3.283 4.908-4.043 8.105-.76 3.198-.772 6.225-.04 9.081.734 2.855 2.117 5.278 4.15 7.268 2.032 1.991 4.555 3.342 7.566 4.053 3.013.712 5.874.634 8.585-.236 2.712-.869 5.039-2.415 6.978-4.639 1.94-2.224 3.29-4.935 4.049-8.134.76-3.197.77-6.214.032-9.052zm-13.84-2.376c2.561.605 4.431 1.813 5.612 3.621 1.18 1.809 1.503 3.842.967 6.099-.537 2.258-1.741 3.94-3.614 5.047-1.874 1.108-4.09 1.358-6.651.753-2.56-.605-4.428-1.821-5.604-3.649-1.177-1.828-1.497-3.87-.96-6.128.536-2.257 1.738-3.93 3.607-5.019 1.869-1.087 4.084-1.33 6.644-.724zm-9.394 49.142l18.583-2.018-.877-8.129-31.036 3.487.908 8.418 19.088 8.601L4.1 177.134l1.015 9.398 31.048-3.371-.878-8.13-18.64 2.024 14.662-10.75-.41-3.805-16.585-7.591zm31.052 70.915c1.426.436 2.863.245 4.311-.574 1.415-.801 2.327-1.939 2.737-3.415.41-1.474.224-2.902-.557-4.281-.78-1.379-1.91-2.273-3.386-2.682-1.476-.408-2.922-.212-4.337.589-1.448.819-2.351 1.953-2.711 3.4-.36 1.447-.15 2.86.632 4.239.781 1.38 1.886 2.287 3.31 2.724zm3.112 23.428l-7.51-2.667c-1.14 2.545-1.395 5.188-.765 7.928.631 2.741 2.049 5.329 4.256 7.763 2.233 2.464 4.749 4.216 7.545 5.256 2.798 1.041 5.6 1.295 8.407.761 2.807-.533 5.359-1.839 7.654-3.916 2.296-2.078 3.847-4.486 4.654-7.224.809-2.738.833-5.55.072-8.434-.76-2.884-2.257-5.558-4.49-8.022-2.206-2.434-4.65-4.094-7.333-4.978-2.681-.884-5.316-.911-7.906-.08l1.872 7.771c3.189-.747 5.82.025 7.898 2.316 1.584 1.748 2.322 3.713 2.212 5.898-.108 2.184-1.154 4.173-3.133 5.964-1.98 1.792-4.062 2.634-6.25 2.527-2.184-.106-4.07-1.034-5.654-2.781-2.052-2.262-2.56-4.957-1.529-8.082zm40.96 62.928c3-5.193 1.562-9.507-4.315-12.943-5.908-3.455-10.396-2.606-13.462 2.548l5.208 3.045c.684-1.168 1.543-1.887 2.576-2.158 1.032-.269 2.15-.053 3.351.65 1.202.702 1.922 1.56 2.157 2.572.237 1.012.03 2.111-.623 3.299l5.108 2.987zm-17.135-24.337l7.16 4.187 22.513-8.348-9.392 16.019 7.763 4.538 15.789-26.932-7.211-4.217-22.462 8.378 9.391-16.02-7.762-4.538-15.79 26.933zm64.049-4.302l-8.262-1.879-3.969 17.361c-1.035 4.523-.543 8.194 1.471 11.012 2.015 2.818 5.379 4.764 10.095 5.836 2.453.558 4.911.78 7.378.667 2.467-.114 4.664-.566 6.591-1.357l-1.76-6.884c-1.292.618-2.78 1.003-4.461 1.156a15.774 15.774 0 01-4.957-.324c-2.338-.532-3.974-1.449-4.906-2.752-.932-1.303-1.18-2.915-.74-4.837l7.017 1.595c4.452 1.012 7.929.95 10.43-.185 2.503-1.137 4.077-3.119 4.723-5.946.405-1.773.314-3.459-.272-5.06-.587-1.6-1.647-2.992-3.183-4.174-1.535-1.182-3.472-2.039-5.812-2.57-4.527-1.03-7.943-.32-10.25 2.13l.867-3.789zm9.958 11.902c-.543 2.375-2.625 3.151-6.246 2.328l-6.055-1.378.711-3.11c.801-1.246 1.866-2.084 3.194-2.516 1.329-.432 2.748-.475 4.257-.132 1.547.352 2.689.958 3.424 1.82.736.861.974 1.858.715 2.988zm126.526-37.18l-20.294 8.351-2.559-6.22-7.785 3.204 5.384 13.084 4.134-1.701 9.047 21.984 25.179-10.362-3.728-10.128c-1.395-3.899-2.179-7.025-2.353-9.378-.173-2.353.628-3.916 2.403-4.688l1.181-.486-5.385-13.084-7.784 3.204 2.56 6.22zm2.927 24.504l-9.449 3.888-6.223-15.121 12.187-5.015c-.533 1.348-.587 3.021-.163 5.02.425 1.998 1.187 4.486 2.287 7.462l1.361 3.766zm74.85-9.421c-2.316-5.527-6.623-6.993-12.923-4.401-6.335 2.607-8.38 6.687-6.136 12.244l5.584-2.298c-.515-1.252-.567-2.369-.156-3.353.411-.984 1.261-1.741 2.549-2.272 1.289-.53 2.407-.583 3.357-.158.949.424 1.699 1.254 2.249 2.491l5.476-2.253z" fill="#E9E9E9"/></svg>